<svg class="injected-svg" id="svg-fca7c511-fc6b-4e97-b016-77c35c436b0a" height="100%" width="150px" viewBox="0 0 540 508" xmlns="http://www.w3.org/2000/svg"><g xmlns="http://www.w3.org/2000/svg" fill="#78ba52" id="shape-svg"><defs><style>.cls-1{fill:#b45050;}</style></defs><title>Graphic</title><g id="Слой_2" data-name="Слой 2"><g id="Слой_1-2" data-name="Слой 1"><path transform="translate(81, 70) scale(1,1)" class="tmp-cls-1" d="M355.91,270.16a11.33,11.33,0,0,1-.41,1.36A8.39,8.39,0,0,0,355.91,270.16Z"></path><path transform="translate(81, 70) scale(1,1)" class="tmp-cls-1" d="M354.29,267.59c0-.13.07-.29.11-.44s0-.28,0-.48Z"></path><path transform="translate(81, 70) scale(1,1)" class="tmp-cls-1" d="M356.81,259.93c-.61,2.46-1.66,4.46-1.57,3.49-.35,1.82-.64,3-.84,3.73,0,1.23-.06,1.53.33,2.09a10.77,10.77,0,0,1-1.87,4.75c-.59.73-.77.57,0-1.41,0,0-.25.64-.67,1.52s-1,2-1.63,3.15c-1.25,2.21-2.64,4.28-2.64,4.28l1.82-2.38c.9-1.21,1.75-2.5,1.75-2.5-.09.94-1.49,3-3,4.87s-3,3.75-3.36,4.86l1.12-1.35c.65-.79,1.48-1.86,2.29-2.95,1.63-2.17,3.13-4.54,3.13-4.54l-.07.63c.63-1.2,1.54-2.89,2.4-4.5a25,25,0,0,0,1.9-4.89,2,2,0,0,1,.1.58,4.8,4.8,0,0,1-.1.8,13.83,13.83,0,0,0,.45-2.36c1.78-6.88-1.06-1.45,1.23-10.32A23.58,23.58,0,0,1,356.81,259.93Z"></path><path transform="translate(81, 70) scale(1,1)" class="tmp-cls-1" d="M361.63,250.22l.09-4.5,2-7.06c-.31-.16.61-5.43-.52-2a29.07,29.07,0,0,1-.64,3.17c-.54-1,1.87-9.58.6-7.66-1.1,5.69-1.5,6.5-1.73,10.12A103.7,103.7,0,0,1,358,253.43c-.31,1.55.1,1.89-.34,3.85.1-.43.2-.83.33-1.32l1.19.11a40.57,40.57,0,0,1,1.2-5l-1,8.65c1.85-2.36,3.45-10.7,4.71-13.88C362.1,249.69,364.48,242.53,361.63,250.22Z"></path><path transform="translate(81, 70) scale(1,1)" class="tmp-cls-1" d="M7,180.79s-.06-.07-.13,0l0,1.92v-.05C7,182,7,181.37,7,180.79Z"></path><path transform="translate(81, 70) scale(1,1)" class="tmp-cls-1" d="M19.1,125l-2.76,9c.11-1.3-1.33,3-1,1-.19.69-1.2,3.89-.73,3.09l.62-1.81c-.7,5,.48,2.24-1.33,10.25A33.79,33.79,0,0,0,16.75,137l.7-2.35L19,126.93Z"></path><path transform="translate(81, 70) scale(1,1)" class="tmp-cls-1" d="M214.6,364.25l.4-.31C214.51,364.1,212.61,364.25,214.6,364.25Z"></path><path transform="translate(81, 70) scale(1,1)" class="tmp-cls-1" d="M372.89,192.05c-.08.42-.18.89-.25,1.27A9.43,9.43,0,0,0,372.89,192.05Z"></path><path transform="translate(81, 70) scale(1,1)" class="tmp-cls-1" d="M101.81,26.5l1.76-1.38Z"></path><path transform="translate(81, 70) scale(1,1)" class="tmp-cls-1" d="M157.8,1.85a19.1,19.1,0,0,0-3.66.84L156,2.23Z"></path><path transform="translate(81, 70) scale(1,1)" class="tmp-cls-1" d="M370.21,162v-.13c-.05-.2-.09-.36-.14-.58Z"></path><path transform="translate(81, 70) scale(1,1)" class="tmp-cls-1" d="M265.09,20.51c.47.32,1,.67,1.75,1.09A6,6,0,0,0,265.09,20.51Z"></path><path transform="translate(81, 70) scale(1,1)" class="tmp-cls-1" d="M153.47,2.86l.23,0,.44-.15Z"></path><path transform="translate(81, 70) scale(1,1)" class="tmp-cls-1" d="M80.18,37.88l-1,1A10.11,10.11,0,0,0,80.18,37.88Z"></path><path transform="translate(81, 70) scale(1,1)" class="tmp-cls-1" d="M31,104.38l-1.28,3.07A30.27,30.27,0,0,0,31,104.38Z"></path><path transform="translate(81, 70) scale(1,1)" class="tmp-cls-1" d="M77.91,42.91c-.11.16-.22.31-.29.43C78,43,78.07,42.86,77.91,42.91Z"></path><path transform="translate(81, 70) scale(1,1)" class="tmp-cls-1" d="M366.39,212.26c0-.07,0-.15,0-.2l-.12-.1Z"></path><path transform="translate(81, 70) scale(1,1)" class="tmp-cls-1" d="M366.59,220.43c-.15.93-.31,1.9-.47,2.85C366.34,222.23,366.5,221.2,366.59,220.43Z"></path><path transform="translate(81, 70) scale(1,1)" class="tmp-cls-1" d="M306.05,46.92c.63.64,2.1,2.14,1.23,1.67C308.74,49.47,309.05,48.9,306.05,46.92Z"></path><path transform="translate(81, 70) scale(1,1)" class="tmp-cls-1" d="M365.94,228.21c.77.59-1.09,6.73-1.54,9.52.67-1.95.31,1.12.75.59a45,45,0,0,1,1-5.32c.62-.95.09,2.54-.69,5.19,1.24-3.2-.34,4.34,1.13-.24,2.06-10.08,3.2-17.29,3.22-24.62a126.44,126.44,0,0,1-3.26,16.87l-.3-2.13c1.77-5.15,2-8.53,3-13.76,0,0-.66,2.92-1.31,5.84s-1.39,5.82-1.39,5.82c-1.78,5.34-1.13,1.65-.36-2.69a9.41,9.41,0,0,1-.66,2.25C365.66,226.1,363.49,238.51,365.94,228.21Z"></path><path transform="translate(81, 70) scale(1,1)" class="tmp-cls-1" d="M365.39,210.17h0C365.4,210.07,365.39,210.09,365.39,210.17Z"></path><path transform="translate(81, 70) scale(1,1)" class="tmp-cls-1" d="M45.53,74.65a.37.37,0,0,0-.18.1C45.13,75.25,45.29,75,45.53,74.65Z"></path><path transform="translate(81, 70) scale(1,1)" class="tmp-cls-1" d="M300.86,39l2.44,1.7A26.48,26.48,0,0,0,300.86,39Z"></path><path transform="translate(81, 70) scale(1,1)" class="tmp-cls-1" d="M336.94,83l-1.32-1.66-.33-.27A15.14,15.14,0,0,0,336.94,83Z"></path><path transform="translate(81, 70) scale(1,1)" class="tmp-cls-1" d="M201.88,10.16a10,10,0,0,0-2,.08A9.3,9.3,0,0,0,201.88,10.16Z"></path><path transform="translate(81, 70) scale(1,1)" class="tmp-cls-1" d="M371.91,195.72v.49C371.91,196.05,371.91,195.88,371.91,195.72Z"></path><path transform="translate(81, 70) scale(1,1)" class="tmp-cls-1" d="M373,178.28c-.35-4-.43-6.77,0-6.66-.17-1.79-.28-2.38-.42-3.25-.06-.42-.13-.91-.18-1.61,0-.35,0-.74,0-1.22v-1a9.34,9.34,0,0,0-.1-1.62c-1.06-3-1,.32-2.64-6.63,0,0,.18,1.39.37,2.77l.24,2.81c.15.59.28,1.14.42,1.7a6.63,6.63,0,0,1,.16,1.16c0,.26.06.53.09.82,0,0,0-.34,0-.85a15.27,15.27,0,0,0-.27-2.42c-.21-1.45-.43-2.9-.43-2.9.78,3.68,1,2.84,1.71,4.08.08,2.09.14,3.8.2,5.27s.07,2.49.1,3.51c0,2.1,0,3.77.23,6-.89-2.63-1.45-6.94-1.89-5.22a15.24,15.24,0,0,0-.57-4.28,14,14,0,0,1-.34-1.89,11,11,0,0,1-.05-1.19c0-.23,0-.47,0-.73s.06-.81,0-1.22a12.65,12.65,0,0,1,.26,1.31,10.92,10.92,0,0,0-.29-1.8c-.08-.42-.16-.8-.22-1.14-.12-.69-.18-1.26-.24-1.81a13.83,13.83,0,0,0-.82-3.75c.19.23.19-.24.19-.69-1.9-7.24.13,2.25-2.22-4.85-1.57-6.38.57-2.37.43-4.21,1.95,5.23,2.09,5.19,2.41,5.16s.67.05,2.18,6.09c.92-.18.27-5.14-1.62-11.44.74,4.21-2-2.24-1.22,3.37a40.8,40.8,0,0,0-3.78-8.64,41,41,0,0,1-3.5-9.39l.22.19-2.16-3.78-1.74-5.63c2.24,3,3.4,7.41,4.93,10-1.57-7.15-4.37-8.71-7.19-16.38-1.35-6.75,3.55,7.52,4.47,7.18-.84-1.47-2-5.8-1.53-5.41,2.42,7.31,2.26,4.11,4.83,12.43-1.8-3.85-.06.72-.73.12.73,1,3.73,8.7,5.21,14.48,1.06,1.1-.89-5.13-1.85-8.69-3-6.37-4.35-13.44-7-18-2.66-6.75.43-.75.36-1.19-2-6.19-1.54-2.43-2.43-4.31-3.8-9-2.84-10.4-4.63-16.84a19.26,19.26,0,0,1-.89-2.27c-.07-.22-.15-.44-.22-.67s-.22-.77-.34-1.17c-.27-.85-.43-1.77-.8-2.65L344,81.88l-5.53-7c-1.93-2.25-3.82-4.43-5.53-6.41,1.08.72.37-.5.15-1.16-2.64-1.81-3.46-2.39-4.38-3.16s-1.92-1.73-5-4.09l2.2,2.43C327,63.73,328,65,328,65a70.84,70.84,0,0,0-5.54-4.75,46.19,46.19,0,0,1-5-4.81c4,5.06-6.86-4.93-10.21-6.86-3.94-3.58-8.76-6-10.77-8.18l.63.36L294,38.55c-.78-.56-1.58-1.1-2.19-1.48l-1-.65,1.41-.48A41.09,41.09,0,0,0,285.56,32c-1.9-.84-3.07-1.16-2.36-.56-4.72-3-1.79-1.5-2.24-2.36,1.47.62,3.81,1.54,5.93,2.55s4,2.23,4.55,3.13a5.46,5.46,0,0,0-1.64-1c6.1,4,7.15,4.58,7.67,4.3s.26-1,3.39.91c-3.14-2.19-5.15-4.36-8.83-6.21-.83-.47-2.92-1.68-5.3-2.87s-5-2.4-6.82-3.17a42,42,0,0,1,10.4,6.5c-3-2-3.78-1.71-6.25-3.5l1,.31-3.57-1.54c-.12-1-9.28-5.15-3.67-3.19-4.77-2.26-1.88-.3-6.27-2.22l4.16,2.24,4.13,2.27-.48.56c-3.28-1.14-3.77-2-7.16-3.66l-.07.88s-1.42-.91-2.87-1.75l-2.9-1.72c.54.82-4.05-1.5-5.44-1.9-3.31-1.66-.58-2-6.74-3.61l.4.23c-3.49-.95-5.5-1.65-10.36-3.37a13.4,13.4,0,0,1,2.38.45c-6.71-2.84-18.28-4.39-21.24-6.22.71-.5,3.58.55,3.9-.13,5.36,1.7,7.26,2.11,9.51,2.31s4.71.64,10.91,3c0,.88,2.71,1.61,5.64,2.42s6,1.92,6.87,3.11c-4.68-2.27-11.5-3.63-10.69-3.15a119.14,119.14,0,0,1,13.63,5.49c-2.45-1.66-1.24-2.14.94-1.76C258.81,16,246,10,235.33,7.09l.93,1.28c-9.32-1.78,1.38-.68-5.81-2.51l-3.36,0-.43-.19-2.75-.17-2.75-.07c3.77.67,2.2-.39,6.22.95,3.57,1.16-.33.68-1.48,1-2.4-.92-11.39-2.28-5.75-1.93l-5-.41-5-.23c.12-.35,2.29-.2,3.33-.24l-3.58-.43c-1.78-.23-3.57-.39-3.57-.39l.28-.11c-5.81-.23-13.88-.81-18.32-.15,4.9.46,3.71.69,1.43.76s-5.69.28-5.27.55c-3.49-.13-4.64-1.85,2.91-2.45,2,.51,7.19.1,11,.27a58.8,58.8,0,0,0-10.29-.31c2.74-.41-5.11-.64-5-1,.51-.28,2.14-1.1,7.13-.68,7.42.43.73.93,2.93.89,1,.53,3.54.59,6.43.69s6.11.26,8.33.65c.45.14-1,.06-1.75.06C210,3.26,218,4.49,218.67,4c0,0-2.39-.38-4.8-.57L209.06,3c-2.06-.5,3-.15.08-1-2.19-.19-4.84-.29-7.68-.75L202,1.1a74.11,74.11,0,0,0-10.57-1c-3.9-.09-7.91-.07-11.3.16-1.49,1.5-5,2.39-7.81,4.13a205.82,205.82,0,0,0-30.62,4.3c.23.26.21.57-.22.93-3,.34-8.21,2.17-8.27,1.41-2.91,1.59-11.31,5.08-9.41,5.21l-1.1.48a48.27,48.27,0,0,0-7.34,1.84c-1.53.53-3.22,1.16-5.16,1.94l-2.06.86-.55.23-.44.41-.91.85c-.74.69-1,.85-1.41,1.25l-1.29,1.07c-1.39,1.15-1.31,1.68-.55,2-1.69,1.09-3.31,2.06-4.89,3.13a24.67,24.67,0,0,1,3.68-3.71s-2.88,2.23-6,4.18c-1.54,1-3.1,1.91-4.28,2.56L90.13,34l-.79.41.23-.18.27-.21.16-.15.39-.41-.84.55A8,8,0,0,0,87,36c-1,1-1.23,1.35-1.62,1.78l-.62.64,2.08-2c.57-.45,1-1.12,1.67-1.36l1.7-.82c1.34-.59,2.27-.88,1.92-.26l-1,.66-.48.3-.64.37c-.49.28-1,.53-1.45.81L87.4,37.15l-.88.85c-.23.22-.46.45-.7.65l-1.4,1.23a73.37,73.37,0,0,0-5.72,5.2c-.76-1.07-2.45,0-1.37-1.81a5,5,0,0,1,.58-.36,92.82,92.82,0,0,1,6.48-7.54c-4.35,3.72-6.31,5-8,6.35s-3.21,2.42-8,5.89c-.65,0,1.44-1.83,3.29-3.41s3.47-3,2.29-2.41c0,0,2.17-1.48,4.14-2.93s3.82-2.93,3.82-2.93a17.07,17.07,0,0,0-1.75,2c1.19-1.14,2.17-2.09,3-2.94l1.88-1.81a7.89,7.89,0,0,1,2.68-1.76l.93-.51.62-.35c.41-.25.82-.51,1.24-.8a21.83,21.83,0,0,0,2.6-2.09c2.83-1.4-3.8,3.11-.84,1.38a29.69,29.69,0,0,0-3.21,2.61l-.33.32-.72.51-1.26.93a23.82,23.82,0,0,0-1.49,2.05c.64-.58,1.22-1.15,1.77-1.61l1.77-.92c.2-.1.39-.21.56-.31l.35-.2.6-.39a7.13,7.13,0,0,0,1.38-1.25,16.41,16.41,0,0,1,3.71-3.43l2.17-1.13L99.75,25c2.2-1.9-1,.28-1.26.19a39.12,39.12,0,0,1,3.21-2.47l1.29-.93.64-.51c.32-.27.84-.78,1.29-1.21L103.8,21a5.47,5.47,0,0,1-.76.5c-.41.24-.74.36-.67.11l.64-.45.32-.23.08-.06.21-.19.31-.28,1.23-1.09c.21-.18.4-.38.62-.54l.76-.32L111,16.57a29.8,29.8,0,0,1,7.15-2.14c-2.79.53,2.47-2.38,4.5-3.34l-4.84,1.31-3.34.92-1.49.49-4.13,1.95-2.91,1.34-.86.4a3.76,3.76,0,0,0-.71.62L103,19.41l-1.46,1.36-1.22,1c-.81.68-1.67,1.35-2.54,2-1.74,1.31-3.59,2.6-5.59,3.92-1,.65-2,1.31-3.11,2l-.8.48-.52.3-1,.52c-1.38.54-2.33,1.78-3.42,2.8l.77-1.3-1.23,1.09-.59.49L81.19,35l-2.1,1.66c-1.3,1-2.47,2-3.48,2.82a55.94,55.94,0,0,0-4.85,4.57c-1.38,1.44-2.69,2.9-4.56,4.75s-4.35,4.14-7.84,7.78c-.58-.18-2.16,1.59-3.53,3.34s-2.51,3.5-2.69,2.91A29.2,29.2,0,0,0,54.82,59c0-.27-.64.15-1.38.73-1,1.6-1.68,3-2.6,4.82l-1.42,2.72c-.51,1-1.15,2-2,3.29.63-2.19-2.35,2.19.38-3-4.24,7-6.24,10.87-7.42,15C35,94.51,37.5,85.38,31.93,97.32l.52-1.91-3.54,7.43,1.66-2.2-1.85,4.51c-.91,2.26-1.81,4.52-1.81,4.52-2,5.67,1.61-1.94,1.68-1l.18-2.14c1.82-3.49,3.75-8.69,4.58-9.19-2.75,5.78-1.56,4.65-2.39,7.08l2.43-5.59,1.39-1.52c2.76-5.37,5-9.4,6.19-12.86-1.43,2.07-1.45,3.82-2.85,5.61.53-3.07,4-9.69,7.24-16.15.29-.06,1.48-2,1.17-1.1a12.1,12.1,0,0,1-1,1.88c.64-.28-1.11,3.39,2.45-2.44-.65,2.47-2.11,7.44-1.83,7.39-1.77,3.54-4.33,8.47-6,11.18v-.29c-1.7,3-4.41,9.8-5.25,10-.81,2-3.21,7.28-.22,2.12l-2,4.5c-1,2.25-1.93,4.51-1.93,4.51-.41-2-4.53,6.32-1.3-2.94-.11.24-1.05,2.45-2.52,6.08.66-3.48-1.7,1-3.87,6l.12,1.45c-2.19,4.12-3.76,6.52-5.73,12.44,0,0-.63,3.65-1.27,7.29l-1.06,7.3c-.4,1.35-.76,2.73-1.09,4.12-.91,1.71-2.4,7.93-2.46,5.31-.48.54,0-1.57.88-4.23.2-.38.06.3.27-.1-.19-.88-.57-1.36-2,1.81A35.77,35.77,0,0,0,12.43,150s-.29.83-.55,1.67l-.54,1.68c1.29-5.06,2.95-13,2.39-13,.22,1.77-1.55,4.73-2.58,7.38.51-2.12,1.5-6.66.32-3.32-.11,1.3-2.53,10.61-.17,4.2a88.14,88.14,0,0,1-2.46,9.75c.67-3.81-.31-1.45-.55-2.64-.49,3.43.16,3.48.28,4.09-1.55,4.66-2.94,7.88-4,11.36a58,58,0,0,0-2.73,12.68c-.15,1.46.91-6.69,1.27-5.55a42.12,42.12,0,0,1-1.58,9.08c-.33,1.22-.67,2.41-1,3.73l-.21,1c-.07.45-.15.9-.23,1.37A11.5,11.5,0,0,0,0,195.65c0,.39,0,.8,0,1.23,0,0,.23-.48.47-1,0-.13.11-.21.17-.38L.84,195l.15-.57c.05,1.21.15,3.25.25,5.36.1,1.95.21,3.95.28,5.27-.34.64-.43,8.6-1.11,2.76a32.53,32.53,0,0,0,2.33,12.54l1,2.51.6,1.45a15.1,15.1,0,0,0,1,2.39c.59,1,1.26,2.07,2,3.32.57,1,1.11,2.16,1.75,3.52a53,53,0,0,0-2.43-5.17c-.28-.53-.55-1-.84-1.57a8.67,8.67,0,0,1-.8-2.05c-.27-.91-.38-1.21-.54-1.86s-.34-1.23-.49-1.93c2.08,5.95.63.81,1.42,1.33a11.55,11.55,0,0,0,.33,1.82c.13.49.27,1,.42,1.52a14.18,14.18,0,0,0,.71,1.49l1.63,3.19c.77,1.69,1.05,2.35-.67-.24,1.73,3.26,4.58,10.36,5.54,12l-.46-1.66-.48-1.63c2.08,5.18,4.43,10.42,5.84,12.47-2.45-6.79-3.39-6.25-6.6-14.48-3.24-8.92,1.55,1.81-.17-4.27l-1.78-2.88c-1-1.44-1.79-2.6-2-3.1l1.58,3.13A4.25,4.25,0,0,1,8,228c-.14-.22-.28-.46-.42-.71l-.8-1.45A30.22,30.22,0,0,1,5.81,223C5,220,4.57,217.43,4.09,218c-.31-4.24-.38-6.8-.51-9.47A71,71,0,0,1,3.82,199c-.39-2-.4,1.07-.4,3.45A26.75,26.75,0,0,0,2.93,198a14.42,14.42,0,0,1-.18-2.15,10.67,10.67,0,0,1,.13-2.26c.16-.87.26-1.23.45-2,.26-1.39.1-1.63-.21-.91a10.35,10.35,0,0,0-.55,1.79,13.85,13.85,0,0,0-.34,1.92c0,.68,0,1.41,0,2.21v-2c0-1,.2-1.76.23-2.2.14-1,.27-2.1.4-3.17.28-2.12.51-4.32,1-6.63l-.76,2.32c-.35,1.18-.69,2.35-.69,2.35l.34-2.48c.21-1.24.41-2.47.41-2.47l-.56,2c-.25,1-.49,2.06-.49,2.06,1.29-9.49,3.78-20.22,6-24.82-.75,4.1-1.73,9.46-2.63,14.42-.72,5-1.33,9.58-1,12,.53-1.75.17-6.62,1.6-8.79l-.22-2.59c.35-2.87,1.51-9.48,2.32-9.88a76.93,76.93,0,0,0-1.17,14c.14.05.08.77-.08,1.9,0,.05,0,.08,0,.12v-.07C6.54,185,6,188.81,5.87,191c-.52,2.72-.64.78-.74.47q-.18.87-.36,1.71a10,10,0,0,0-.23,2.45c0,1.08,0,2.14,0,3.19.1,2.09.3,4.12.57,6.19l1.93,13.67c-.27.11,0,2.24.35,4.09.38,2.29,1.52,4.26.44,2.63.43.8.83,1.56,1.21,2.29l.85,1.45c.52.93,1,1.77,1.52,2.55,1,1.55,1.87,2.95,2.78,4.5-.16.9,2.9,7.81,1.36,5.46l1.29,2.2c.63,1.13,1.27,2.25,1.27,2.25.86,3.4,3.62,10.29,3.44,11.69,1.45,3.7,1.21.75,2.74,6.06-.21-.19-.15.25-.5-.85A46.14,46.14,0,0,0,28,273.55c-1.25-3.76-.29-.89-1.78-5.34.38,0,2.65,4.69,4.52,9.77-1.89-3.17-1.51-1.76-.88.09s1.67,4.1.68,2.64c.62,1.34,1.28,2.58,2,3.76l1.13,2a19.46,19.46,0,0,0,1.49,1.88l4.11,4.75c2.66,3.07,5.23,6.06,8.26,9.73,3.22,4.57,7.08,9.87,11.82,14.2a45.37,45.37,0,0,0,7.51,5.54c2.47,1.35,4.69,2.35,6.71,3.25l-1-.58,4.78,2c2.61,1.42-.42.86,3.76,2.84-1.79,0-7.11-3.67-11.62-5.45,3.41,2.32,1.64,1.59-.43.68s-4.57-2.22-2.19-.42c3.63.08,15.36,8.09,22.1,10.56,6,3.34-3.13-.82-.14.84l2.2.55c2.36,1.38,3.09,1.94,2.86,2.23a114,114,0,0,0,20.12,8.82c-7.43-2.94,2.78.39-4.39-2.86,2.29.73,7,2.69,11.53,4.52-4.43-1.56,5.36,3.52-4.16-.76,1,1.37,4.81,1.87,9.09,3.68-2.34-.57-7.42-2.1-7-1.83,3.45.81,8.61,3.07,13.38,4.94s9.12,3.44,10.54,3.47c5.14.7,12.92,2,19.21,2.35a7.31,7.31,0,0,0,1.44.3l1.18.17,2.34.28,4.83.42c3.28.25,6.66.46,10.07.79l-1.24.24c3.85.46,9.9.54,15.63,1l1.25.68c4,0,11.4.12,17.48.08.06-.36-5.54-.29-2.89-.74-3,0-5.58,0-4.51.45-3-.09-3.12-.68-5.58-1l5.82-.06,5.83-.19a3.93,3.93,0,0,1,1.33.15l.84-.68c3-.08,3.9.06,3.4.35a57.62,57.62,0,0,0,7.7-1c2.23-.4,4.51-.67,8-1a32.17,32.17,0,0,1-9.63,1.82l3.95-.28c2-.11,3.95-.35,3.95-.35-1.77.57-6.09.92-9.66,1.35s-6.42.59-5.23,1.06c4.36-.31,9.72-.86,14.9-1.69a114.73,114.73,0,0,0,13.86-3.1,35.49,35.49,0,0,0,7.28-1.4c2.72-.91,5.77-1.85,9-2.82.92-.16,2.93-.7,1.87.05l-1.77.69c2.12-.76,4.31-1.55,6.48-2.44s4.26-2.07,6.34-3.14,4-2.44,5.89-3.63a19.86,19.86,0,0,0,2.8-2,20.33,20.33,0,0,0,2.4-2.43,22,22,0,0,0,1.78-1.43c.86-.76,1.64-1.6,1.64-1.6A22.6,22.6,0,0,0,293.6,335c.18-.6-.11-.39-.41-.21s-.61.35-.47-.31a21,21,0,0,1,2.15-5c1.41-2.16,11.54-10.86,12.34-10.62,1.92-1.58,2.83-2.24,2.77-2.84-1.84,1.29-5.6,4.54-3.77,2.32,3.43-3,5.45-3.95,8.38-6.12-.12.25-2,2.14-.91,1.23,3.5-2.77,8.79-6.48,13.71-10.74s9.19-9.29,11.19-13.19l-2,3a16.62,16.62,0,0,1-2.94,3.31c-.22-.32,1.44-1.94,1.92-2.8-.85,0-2.66,3.7-6.42,6.33l.81-.87,1.69-2c.63-.71,1.19-1.48,1.62-2l.71-.94,0,0a56.64,56.64,0,0,0,7.61-10.35s9.67-11.05,9.67-16.58c8.29-27.63,13.82-52.5,16.58-77.37a74.52,74.52,0,0,0-1.31-12,45.11,45.11,0,0,1,1.31,17.05c-.1-.27-.07-1-.24.16-1.11,7.45-.29,10.62-1.91,16.5l-.28-.82c0,.51-.32,4.1.26,3.48.74-5,.69-6,1.52-10.49a50.76,50.76,0,0,1-.75,8.9l.66.45c.09,3.93-1.76,7.57-1.78,11.46l1.37-4.31c0,.13-.05.48-.08.77a23.51,23.51,0,0,0,.47-4.26c.84-6.73,2.38-10,2.94-11,.74-3.11.74,1.27,1.24,1,.63-5.1-.21-4.92.31-10,.26-1.23.35-.9.36-.36l0-3.33a7,7,0,0,0,.33-1.37l.26-1.53c0-.55,0-1.11.06-1.62.06-1.71.18-2.72.57.14a16.26,16.26,0,0,1-.05,2.11c-.08.64-.17,1.33-.24,1.93.08-.44.17-.9.26-1.38a9.37,9.37,0,0,0,.21-2.16c.05-1.21.05-2.36,0-3.55C373.31,182.6,373.12,180.28,373,178.28ZM320.23,64.15a2.57,2.57,0,0,1-.83-.52c2.86,2.68,4.35,4.2,5.69,5.59s2.65,2.54,4.73,4.86l-1.55-1.18c.27,1.23,4.19,4.51,7.35,8.47,1.15,1,3.52,3.31,4.35,5.19l-.79-.37a18,18,0,0,0,2.07,3.42c.57.85,1.31,1.82,2,2.91.31,1.26.63,2.61,1,4L343.54,95c-.2-.8-.41-1.6-.59-2.41a184.63,184.63,0,0,0-34-36.87C312.52,58.27,316.27,61.06,320.23,64.15ZM222.9,13.56c2.94.29,6.71.42,11.44,1.12l-.29.06L238.88,16l4.78,1.45-1.26-.06,2.88.62c1.45.29,2.87.68,2.87.68-.37.64,1.58.94,1.09,1.3,3,2.38,12.37,4.1,19.32,8.11l-1.25-.21c2.12.53,5.42,2.33,9,4.26,3.49,2.1,7.23,4.36,10.06,6.3h-.28c-2.79-1.49-4-1.82-3.8-1.37q-4.21-2.44-8.56-4.69a11.82,11.82,0,0,0-1.17-1c-1.11-.4-2.43-1-3.78-1.59l-.71-.3q-6.62-3.18-13.45-5.87a23.74,23.74,0,0,1,2.4.51l-2.82-1.09-6.28-2.15c-2.27-.83-4.62-1.42-6.35-2l-2.89-.86a0,0,0,0,0,0,0q-8.07-2.42-16.3-4.14C223,13.93,222.84,13.81,222.9,13.56ZM137.17,14l.68.51c11.81-2.88,20.15-6.08,32.87-6.78-1.7.74-6.51.78-5.82,1.07,7.57-.48,6.44-2.26,14-1.62-10.71.57,6.67.1-2.95,1,13.42-1.67,27.68,1,36.34,2.19-2.14-.73,3.67-.14,3.93-.16,2.26.49,1.42.76-.41.44,4.4,1.21,5.06,1.9,4.22,2.29l-4.54-.81c-2.26-.39-4.55-.65-4.55-.65a33.61,33.61,0,0,1,3.9,1c-4.66-.78-9.34-1.36-14-1.79-.86-.21-1.3-.4-.88-.51-3.15-.11-7.78-.84-9.49-.83,3.3.5,2.59.6.74.69-1.68-.07-3.36-.09-5-.11,0-.19,1-.38-.78-.5l-3.68,0L178,9.67l3.2-.05c1.6,0,3.2.05,3.2.05l-.76.29a172.1,172.1,0,0,0-45.85,6.22,37.9,37.9,0,0,1-7.78.28C132.5,15.48,135,14.68,137.17,14ZM100.85,33.68l2.64-2.27-.56.4c1.86-1.48,3.62-3,5.26-4.6.86,0,1.35.13,1,.65l-.76.7-.1.07,0,0a82,82,0,0,1-7.24,5.65c-.77.35-1.83.92-3,1.58Zm-7.53,5.21,4.42-2.4c-2.25,1.43-4.4,2.68-6.24,3.6l-.7.67A5.18,5.18,0,0,1,93.32,38.89ZM55.11,72.73l-.88.74c1.48-2.3,2.06-4.47,3.39-5.56-.09.26-2.11,5.82-3.89,10.73L51.6,82.48l0,0c-1.13.93-4.84,6.06-9,12.24C46.42,87.51,50.77,80.1,55.11,72.73ZM25.77,117.39a2.37,2.37,0,0,0,.12-.78c.51-1,.75-1.72,1-1.81l-1.16,2.88Zm-4.3,31.33-.14.48a26.69,26.69,0,0,1-1,2.8C20.71,150.87,21.09,149.8,21.47,148.72Zm-6.09,19.73c.93-3.24,1.71-6.4,2.68-9.39-.51,2.25-.89,4.6-1.67,7.3.25-.68.5-1.42.74-2.17q-2,7.81-3.51,15.93a47.37,47.37,0,0,1,1.32-8.25c-.09.42-1,3.62-2,8.36v-1.64C13.72,175.09,14.57,171.71,15.38,168.45Zm114,180.38,1.61.2c1.21.45,2.43.89,3.65,1.32C134.39,350.59,134,350.94,129.38,348.83Zm7.48,2.27,3.18,1a13.91,13.91,0,0,1-2.37-.58ZM366.42,176.78c-.11-.71-.23-1.42-.34-2.13.35,1.4.67,2.61.9,3.6Z"></path><path transform="translate(81, 70) scale(1,1)" class="tmp-cls-1" d="M157.83,4.64s-.77.17-1.54.39l-1.52.45A66.15,66.15,0,0,0,165.21,3.4c-.26.16.2.21,1.13.31,5.23-.57,8-1.6,5.22-1.89l-1.74.38-3.73-.39c-.64.66-3.65,1.22-7.24,1.72a89.62,89.62,0,0,0-10.58,2.05c3.89-1.23,7.18-3.22,12.54-3l-.65-.6c4.55-.75,8.32-.29,10.8-1.16l-5.31.58,0-.38c-3.77.5-8.5,1.55-12,1.82-1.48.49-2.9,1-5,1.61S144,5.85,140,6.66l.23-.19c-2.53,1.31-6.31,2.12-9.93,2.94s-7.13,1.6-9,2.69c-1.87,2,8.67-2.55,11.51-2.76-3.16,1.44-6.84,2-3.82,1.78-7.41,3.09-4.93.48-10.83,3.67l3.62-1.07c-2.57,1.6-7.31,3.08-9.77,4.92,0,.95,4.54-2.14,10-3.82l-2.11,1.54S122.43,15.12,125,14l5.24-2.13c2.85-2.08-.14-1.18,6.5-3.83,2.55-.26,4.42,0,4.94.57a37.16,37.16,0,0,1,6.16-2.11C150.72,5.86,154.18,5.15,157.83,4.64Z"></path><path transform="translate(81, 70) scale(1,1)" class="tmp-cls-1" d="M365.68,215.6c0,1.68-.89,5.72-.21,5C364.9,220.62,366.77,213.37,365.68,215.6Z"></path><path transform="translate(81, 70) scale(1,1)" class="tmp-cls-1" d="M364.3,221.66l-.11.64C364.24,222.05,364.27,221.84,364.3,221.66Z"></path><path transform="translate(81, 70) scale(1,1)" class="tmp-cls-1" d="M365,217.28l-.84,3c.07.27.27.2.11,1.34Z"></path><path transform="translate(81, 70) scale(1,1)" class="tmp-cls-1" d="M362.43,126.21a25.33,25.33,0,0,0,1.66,4.13C364.38,129.82,363,127.5,362.43,126.21Z"></path><path transform="translate(81, 70) scale(1,1)" class="tmp-cls-1" d="M240.27,367c3.12-.61,7.28-1.18,11.4-2.28,4.14-.88,8.2-2.26,11.26-3.19s5-1.88,5-1.88c-9.19,3.5-18,6-32.86,8Z"></path><path transform="translate(81, 70) scale(1,1)" class="tmp-cls-1" d="M300.52,42.45l1.26,1.5c1.83,1.21,3.42,2.24,4.91,3.17l4.1,2.77a85,85,0,0,1,8.72,6.63,63.22,63.22,0,0,0-5.61-5.14C312.16,50.07,310.57,49,309,48a80.23,80.23,0,0,1-9.81-7S299.89,41.7,300.52,42.45Z"></path><path transform="translate(81, 70) scale(1,1)" class="tmp-cls-1" d="M301,40.91c4.93,3.38,2.72,1,7,4.3l-1.61-2.29C307.09,44.47,300.3,39.64,301,40.91Z"></path><path transform="translate(81, 70) scale(1,1)" class="tmp-cls-1" d="M140.45,5.9c6-1.17,4.9-1.89,8.51-2.79-6.8,1.55-8.27,1.54-16.27,4C139,5.57,140.67,5.31,140.45,5.9Z"></path><path transform="translate(81, 70) scale(1,1)" class="tmp-cls-1" d="M149,3.11l2.39-.46C150.35,2.81,149.61,3,149,3.11Z"></path><path transform="translate(81, 70) scale(1,1)" class="tmp-cls-1" d="M127.36,8.72c.17-.6-5.1,1.47-3.94,1.12A36.22,36.22,0,0,1,127.36,8.72Z"></path><path transform="translate(81, 70) scale(1,1)" class="tmp-cls-1" d="M155.65,12c-2.26.33-4.29-.27-6.1.82C150.22,13,154.06,12.18,155.65,12Z"></path><path transform="translate(81, 70) scale(1,1)" class="tmp-cls-1" d="M110.91,17.36c0-.1-.3-.08-.9.15-.36.14-.55.22-1.31.57a20,20,0,0,0-2.8,1.47,10.09,10.09,0,0,1,2.78-1.1c.83-.22,1-.09.75.25C110.18,18.23,111,17.56,110.91,17.36Z"></path><path transform="translate(81, 70) scale(1,1)" class="tmp-cls-1" d="M141.49,14.59l2-.63s-1.24.29-2.46.66l-2.43.76.89-.07Z"></path><path transform="translate(81, 70) scale(1,1)" class="tmp-cls-1" d="M50.82,63.46s.44-.89.93-1.7l1-1.62L51.28,62l-1.37,2C50.77,62.92,50,65.39,50.82,63.46Z"></path><path transform="translate(81, 70) scale(1,1)" class="tmp-cls-1" d="M49.38,64.81l.53-.79A8,8,0,0,0,49.38,64.81Z"></path><path transform="translate(81, 70) scale(1,1)" class="tmp-cls-1" d="M35.92,290.74l.86,1A12.62,12.62,0,0,0,35.92,290.74Z"></path><path transform="translate(81, 70) scale(1,1)" class="tmp-cls-1" d="M83.53,336.61a44.33,44.33,0,0,1,7,3.64c.88,0-1.57-1.69-1-2-7.44-4.5-9.56-3.35-16.84-7.64.53-.29,3,.58-1.87-2l1.3.58a30.37,30.37,0,0,1-6.61-3.84,21.18,21.18,0,0,0-5.16-3l.58-.47c-4.2-2.27-10.22-8.94-12.93-12.66l.28.14a82.5,82.5,0,0,1-6.19-8.06c-1.07-1.57-2.15-3.47-6.11-8.7l2.1,2.22,2.11,2.3c-2.34-4-3.69-4.29-5.54-6.93.2.08.25-.51,1.3.58-.23-.26-.48-.56-.79-.9l-.8-.88-.44-.48c-.26-.3-.53-.61-.79-.93-1-1.48-1.47-2.31-2.12-3.27-2.42-3.84-4.46-7.82-4.46-7.82-2.21-3.69-.16,1-.16,1.75-1.16-1.27-3.75-8.52-3.42-9,.52.89,2.22,4.66,1.52,2.14l-3.16-5.19c-1.95-7.67,3.34,5.13,5.4,8.64-2.93-7.6-4.38-9.63-7.06-17.54a36.64,36.64,0,0,1,1.11,5.26c-.7.54-2.86-7.05-4.63-12.11.77,3.37-.16,1.58-1.27-.68a4.47,4.47,0,0,0-.43-.86c-.13-.26-.25-.51-.38-.76l.21.6c-.1,0-.16.16-.15.65,1.68,4.15,2.14,7.76,3.09,10.61.15-1.62,1,.78,2.13,4.06a83.8,83.8,0,0,0,3.46,9.29l.92,2.12c.45,1.05,1,2.11,1,2.11l.72,1.6c0,.38-.36,0-1.69-2.34,1.06,2,4.27,8.79,4.4,8l1.29,2.39.9,1.64a10.93,10.93,0,0,0,.73,1l.64.82c.51.67,1.07,1.35,1.6,2.09,2.16,2.87,4.29,6,4.29,6a8.72,8.72,0,0,1,.55,1.19c.37.4.47.43.49.34l1.64,2.41c1,1.55,2.58,3.82,4.57,6.6,4,5.49,10.4,13.64,19.94,19L76,334.35l9.76,5.17c5.74,3,9.65,4.92,9.65,4.92-3-1.61-5.51-3.25-8.57-5C91.87,341.11,81.77,336.63,83.53,336.61Z"></path><path transform="translate(81, 70) scale(1,1)" class="tmp-cls-1" d="M19.64,257.22c-.24-.86-.55-1.83-.95-2.94C19,255.38,19.35,256.32,19.64,257.22Z"></path><path transform="translate(81, 70) scale(1,1)" class="tmp-cls-1" d="M99.76,346.61l-4.39-2.17C96.71,345.16,98.11,345.88,99.76,346.61Z"></path><path transform="translate(81, 70) scale(1,1)" class="tmp-cls-1" d="M13.23,243.35s-.7-1.91-1.47-3.73S10.21,236,10.21,236c.73,2.59-1.29-1.62-1.73-1.91,0,0,1,2.14,1.91,4.36S12.18,243,12.18,243C12.42,242.82,13.06,243.62,13.23,243.35Z"></path><path transform="translate(81, 70) scale(1,1)" class="tmp-cls-1" d="M12.67,245.82A10.57,10.57,0,0,1,14,248.07L12.18,243C12,243.08,12,243.68,12.67,245.82Z"></path><path transform="translate(81, 70) scale(1,1)" class="tmp-cls-1" d="M134.5,358l2.24.71C135.72,358.37,135.05,358.16,134.5,358Z"></path><path transform="translate(81, 70) scale(1,1)" class="tmp-cls-1" d="M163.12,366.74a11.87,11.87,0,0,1-1.31-.35,4.23,4.23,0,0,1-1.51-.73c-.1-.17,0-.32,1.59-.22-7.9-1.21-18.39-4.62-20.35-4.42.19-.08.19-.26-.91-.68l-4.72-.6,4.2,1.58A63.61,63.61,0,0,1,128.45,358a69.63,69.63,0,0,1-9.68-4.24c8.1,2.91,4.37.52,15.5,5-.43-.42-2.36-1.55.23-.81-13.4-4.23-24.62-9.75-37.78-15.33,9.72,5.75-6.9-2.67-4.2-.17l5.64,2.43-.59,0,6.8,3.18c-1.19-1.1-2.22-1.62-1.7-1.93,9,4.45,2.6,1.89,9,5.55l5.21,2.2,5.28,2.09-.91-.2a6.52,6.52,0,0,0,1.64.49s8.93,3.49,18.27,6.13a172.1,172.1,0,0,0,19,4.33l1.2.15a7.77,7.77,0,0,0,1.21.1c.75,0,.86-.05.88-.11S163.49,366.82,163.12,366.74Z"></path><path transform="translate(81, 70) scale(1,1)" class="tmp-cls-1" d="M232.69,367.23c.25-.07.33-.12.11-.1Z"></path><path transform="translate(81, 70) scale(1,1)" class="tmp-cls-1" d="M226.56,368l1.5-.58-3.4.74-3.4.62s2.66-.05,5.35-.3L232,368l.71-.77A24.38,24.38,0,0,1,226.56,368Z"></path><path transform="translate(81, 70) scale(1,1)" class="tmp-cls-1" d="M213.88,367.89l-.57,1.61c5.51-.3,5.19-1.21,2.19-1.49,5-.49,2.69.81,6.14-.16C221.5,367.26,215.29,367.85,213.88,367.89Z"></path><polygon class="tmp-cls-1" points="173.43 367.18 174.95 366.95 171.28 366.58 173.43 367.18"></polygon><path transform="translate(81, 70) scale(1,1)" class="tmp-cls-1" d="M175,367l3.65.37a2.2,2.2,0,0,0-1-.75Z"></path><path transform="translate(81, 70) scale(1,1)" class="tmp-cls-1" d="M193.67,368.66l-5.41-.45C189.83,368.36,191.55,368.54,193.67,368.66Z"></path><path transform="translate(81, 70) scale(1,1)" class="tmp-cls-1" d="M184.16,367.85l4.1.36-4.21-.48Z"></path><path transform="translate(81, 70) scale(1,1)" class="tmp-cls-1" d="M185.15,368.8l-1-.95-5.56-.53C179.16,367.93,179.81,368.58,185.15,368.8Z"></path><path transform="translate(81, 70) scale(1,1)" class="tmp-cls-1" d="M203.69,369.26c-.1.36,2.77.22,4.2.15C206.73,369.35,205.09,369.19,203.69,369.26Z"></path><path transform="translate(81, 70) scale(1,1)" class="tmp-cls-1" d="M302.85,328.81a9.61,9.61,0,0,0-1.74,1.28Z"></path></g></g></g><g xmlns="http://www.w3.org/2000/svg" fill="#ffffff" id="icon-svg">
	<path transform="translate(222.5, 125) scale(0.5,0.5)" d="M 132.184 25.343 C 129.205 30.259, 126.154 41.488, 127.447 42.780 C 127.768 43.101, 125.662 44.520, 122.766 45.932 C 115.019 49.711, 111.822 54.635, 106.952 70.286 C 104.451 78.322, 101.010 86.731, 98.170 91.747 C 93.546 99.913, 93.461 99.994, 89.500 100.012 C 85.705 100.029, 75.646 102.039, 71.649 103.578 C 69.878 104.261, 69.870 104.152, 71.456 101.086 C 72.367 99.323, 74.681 96.145, 76.597 94.025 C 79.374 90.950, 79.949 89.643, 79.429 87.575 C 79.071 86.148, 78.472 84.792, 78.097 84.560 C 77.723 84.329, 75.860 86.422, 73.958 89.212 L 70.500 94.285 69.880 89.392 C 68.573 79.093, 62.686 70.889, 53.473 66.531 C 44.572 62.320, 42 63.372, 42 71.225 C 42 79.696, 45.200 86.784, 51.901 93.154 C 58.565 99.489, 62.732 101.061, 66.432 98.636 L 68.783 97.096 67.703 100.615 C 66.806 103.540, 66.275 104.023, 64.562 103.476 C 47.458 98.009, 38.615 99.046, 29.056 107.639 C 13.427 121.691, 14.702 147.403, 31.900 164.979 C 48.377 181.817, 76.368 184.810, 95.870 171.817 C 99.716 169.255, 100.434 169.078, 101.870 170.339 C 104.678 172.807, 113.725 176.954, 119.693 178.508 C 151.742 186.856, 184.159 161.003, 181.744 129.023 C 181.052 119.866, 178.334 113.018, 169.547 98.294 C 163.895 88.824, 161.125 82.902, 158.883 75.500 C 154.546 61.181, 152.308 55.829, 148.955 51.761 C 145.338 47.373, 138.653 44, 133.573 44 L 129.777 44 130.474 40.285 C 131.299 35.890, 133.484 31.321, 136.169 28.380 C 137.554 26.863, 137.915 25.511, 137.441 23.621 C 136.399 19.470, 135.581 19.738, 132.184 25.343 M 125.500 53.885 C 120.488 56.193, 118.917 58.932, 115.095 72.025 C 113.414 77.786, 109.773 87, 107.004 92.500 L 101.969 102.500 104.193 104 C 109.538 107.605, 112.076 110.454, 114.699 115.796 C 117.200 120.889, 117.500 122.571, 117.500 131.500 C 117.500 143.138, 115.905 148.742, 109.988 157.897 L 106.095 163.921 112.297 166.975 C 139.047 180.144, 170.253 164.221, 173.606 135.693 C 174.476 128.291, 171.916 119.163, 166.260 109.500 C 157.013 93.702, 153.546 86.333, 150.414 75.825 C 146.580 62.961, 143.625 57.335, 139.102 54.289 C 135.014 51.535, 130.872 51.412, 125.500 53.885 M 51 76.540 C 51 79.292, 54.834 85.682, 58.168 88.488 C 62.234 91.909, 62.746 90.606, 59.920 84.036 C 57.097 77.473, 51 72.349, 51 76.540 M 41.625 109.413 C 33.856 112.295, 27.387 120.940, 26.331 129.851 C 25.647 135.625, 28.013 145.459, 31.529 151.459 C 35.067 157.496, 43.053 164.677, 49.523 167.639 C 75.973 179.748, 106.332 163.555, 109.619 135.585 C 110.942 124.326, 105.783 113.561, 97.256 109.789 C 91.452 107.222, 83.775 107.826, 74.364 111.591 L 67.840 114.201 62.116 111.632 C 54.839 108.367, 46.793 107.495, 41.625 109.413" stroke="none" fill-rule="evenodd"></path>
</g><path xmlns="http://www.w3.org/2000/svg" id="SvgjsPath4021989" d="M2.71-0.18L2.71 0.12L0.84 0Q1.05-2.26 1.09-7.55Q1.13-12.84 1.35-14.93L1.35-14.93Q2.05-14.87 5.06-14.83Q8.06-14.79 8.98-14.64L8.98-14.64L9.21-13.72Q8.29-13.56 5.52-13.33Q2.75-13.10 2.60-13.08L2.60-13.08Q2.63-12.61 2.70-11.16Q2.77-9.70 2.79-8.76L2.79-8.76Q3.49-8.67 5.33-8.52Q7.18-8.37 7.67-8.33L7.67-8.33L7.88-7.38Q3.55-6.99 2.81-6.97L2.81-6.97L2.81-6.62Q2.81-5.84 2.76-3.39Q2.71-0.94 2.71-0.18L2.71-0.18ZM10.68-10.54L10.68-10.54L11.63-10.34Q11.79-8.65 11.92-5.06Q12.04-1.46 12.08-0.59L12.08-0.59Q11.89 0.04 11.36 0.04L11.36 0.04Q10.99 0.04 10.65-0.26Q10.32-0.55 10.23-0.98L10.23-0.98Q10.27-1.83 10.40-5.36Q10.52-8.90 10.68-10.54ZM10.97-14.21L10.97-14.21Q11.53-14.21 11.89-13.73Q12.26-13.25 12.26-12.63L12.26-12.63Q12.26-12.18 12.05-11.90Q11.83-11.63 11.46-11.63L11.46-11.63Q10.89-11.63 10.56-12.10Q10.23-12.57 10.23-13.21L10.23-13.21Q10.23-13.66 10.43-13.94Q10.62-14.21 10.97-14.21ZM15.34-8.20L15.34-8.20L15.42-0.08Q15.11 0.08 14.68 0.08L14.68 0.08Q14.36 0.08 13.95-0.02L13.95-0.02Q14.01-1.31 14.03-5.11Q14.05-8.90 14.19-10.73L14.19-10.73L15.11-10.52L15.18-9.37Q16.26-10.52 17.68-10.52L17.68-10.52Q18.40-10.52 18.83-10.42Q19.26-10.32 19.66-9.92Q20.06-9.52 20.26-8.86Q20.47-8.20 20.63-6.98Q20.79-5.76 20.87-4.13Q20.94-2.50 20.96-0.02L20.96-0.02Q20.84 0.02 20.49 0.02L20.49 0.02Q19.75 0.02 19.34-0.16L19.34-0.16Q19.26-0.49 19.26-1.25L19.26-1.25Q19.26-1.64 19.29-2.72Q19.32-3.79 19.32-4.39L19.32-4.39Q19.32-5.37 19.25-6.11Q19.17-6.85 18.98-7.57Q18.79-8.29 18.39-8.67Q17.99-9.06 17.39-9.06L17.39-9.06Q16.71-9.06 16.33-8.96Q15.96-8.86 15.80-8.72Q15.65-8.57 15.34-8.20ZM30.27-15.67L30.00 0.53L28.88 0.31Q28.88-0.10 28.85-0.31L28.85-0.31Q27.77 0.39 26.56 0.39L26.56 0.39Q24.69 0.39 23.66-1.21Q22.62-2.81 22.62-4.84L22.62-4.84Q22.62-5.89 22.77-6.81Q22.93-7.73 23.31-8.71Q23.69-9.68 24.50-10.25Q25.31-10.83 26.46-10.83L26.46-10.83Q27.58-10.83 28.57-10.27L28.57-10.27Q28.73-12.45 28.73-14.66L28.73-14.66Q28.73-15.67 28.71-16.14L28.71-16.14Q29.70-15.96 30.27-15.67L30.27-15.67ZM28.69-1.66L28.69-1.66L28.63-8.26Q28.38-8.78 27.86-9.07Q27.34-9.37 26.74-9.37L26.74-9.37Q25.94-9.37 25.38-8.86Q24.81-8.35 24.58-7.50Q24.34-6.64 24.25-5.91Q24.16-5.17 24.16-4.35L24.16-4.35Q24.16-0.86 26.50-0.86L26.50-0.86Q27.28-0.86 27.92-1.08Q28.57-1.29 28.69-1.66ZM38.53-8.86L38.53-8.86L38.12-9.91Q38.66-10.44 39.48-10.76Q40.30-11.07 41.10-11.07L41.10-11.07Q44.56-11.07 44.56-5.09L44.56-5.09Q44.56-4.27 44.47-2.67Q44.38-1.07 44.38-0.27L44.38-0.27Q44.21 0.37 43.74 0.37L43.74 0.37Q43.37 0.37 43.07 0Q42.76-0.37 42.76-0.82L42.76-0.82Q42.76-0.96 42.78-1.03L42.78-1.03Q41.51 0.21 40.07 0.21L40.07 0.21Q38.99 0.21 38.18-0.58Q37.37-1.37 37.37-2.50L37.37-2.50Q37.37-4.41 38.85-5.95Q40.34-7.49 42.23-7.49L42.23-7.49Q42.31-7.49 42.39-7.48Q42.47-7.46 42.58-7.44Q42.70-7.42 42.76-7.42L42.76-7.42Q42.59-9.82 40.85-9.82L40.85-9.82Q39.83-9.82 38.53-8.86ZM42.82-2.44L42.82-2.44Q42.86-3.88 42.86-4.61L42.86-4.61Q42.86-5.23 42.82-6.34L42.82-6.34L42.66-6.34Q41.20-6.32 40.00-5.25Q38.80-4.18 38.80-2.67L38.80-2.67Q38.80-2.01 39.20-1.62Q39.60-1.23 40.17-1.23L40.17-1.23Q41.08-1.23 42.82-2.44ZM47.62-8.20L47.62-8.20L47.70-0.08Q47.39 0.08 46.96 0.08L46.96 0.08Q46.63 0.08 46.22-0.02L46.22-0.02Q46.29-1.31 46.31-5.11Q46.33-8.90 46.47-10.73L46.47-10.73L47.39-10.52L47.46-9.37Q48.54-10.52 49.96-10.52L49.96-10.52Q50.67-10.52 51.11-10.42Q51.54-10.32 51.94-9.92Q52.34-9.52 52.54-8.86Q52.75-8.20 52.91-6.98Q53.07-5.76 53.15-4.13Q53.22-2.50 53.24-0.02L53.24-0.02Q53.12 0.02 52.77 0.02L52.77 0.02Q52.03 0.02 51.62-0.16L51.62-0.16Q51.54-0.49 51.54-1.25L51.54-1.25Q51.54-1.64 51.57-2.72Q51.60-3.79 51.60-4.39L51.60-4.39Q51.60-5.37 51.53-6.11Q51.45-6.85 51.26-7.57Q51.06-8.29 50.66-8.67Q50.26-9.06 49.67-9.06L49.67-9.06Q48.99-9.06 48.61-8.96Q48.23-8.86 48.08-8.72Q47.93-8.57 47.62-8.20ZM62.55-15.67L62.28 0.53L61.15 0.31Q61.15-0.10 61.13-0.31L61.13-0.31Q60.05 0.39 58.84 0.39L58.84 0.39Q56.97 0.39 55.94-1.21Q54.90-2.81 54.90-4.84L54.90-4.84Q54.90-5.89 55.05-6.81Q55.21-7.73 55.59-8.71Q55.97-9.68 56.78-10.25Q57.59-10.83 58.73-10.83L58.73-10.83Q59.86-10.83 60.85-10.27L60.85-10.27Q61.01-12.45 61.01-14.66L61.01-14.66Q61.01-15.67 60.99-16.14L60.99-16.14Q61.97-15.96 62.55-15.67L62.55-15.67ZM60.97-1.66L60.97-1.66L60.91-8.26Q60.66-8.78 60.14-9.07Q59.62-9.37 59.02-9.37L59.02-9.37Q58.22-9.37 57.66-8.86Q57.09-8.35 56.86-7.50Q56.62-6.64 56.53-5.91Q56.44-5.17 56.44-4.35L56.44-4.35Q56.44-0.86 58.78-0.86L58.78-0.86Q59.55-0.86 60.20-1.08Q60.85-1.29 60.97-1.66ZM76.99-10.17L76.99-10.17L76.88-9.29Q76.02-9.41 75.41-9.41L75.41-9.41Q73.99-9.41 73.07-8.56Q72.15-7.71 71.81-6.55Q71.47-5.39 71.47-3.98L71.47-3.98Q71.47-3.32 71.55-2.81Q71.63-2.30 71.85-1.80Q72.06-1.31 72.53-1.04Q72.99-0.76 73.66-0.76L73.66-0.76Q74.57-0.76 75.96-1.11L75.96-1.11Q76.39-1.27 76.64-1.27L76.64-1.27Q77.13-1.27 77.23-0.12L77.23-0.12Q75.43 0.45 73.89 0.45L73.89 0.45Q71.65 0.45 70.86-0.65Q70.08-1.74 70.08-4.20L70.08-4.20Q70.08-5.64 70.27-6.72Q70.46-7.79 70.96-8.73Q71.45-9.66 72.38-10.15Q73.32-10.64 74.67-10.64L74.67-10.64Q76.19-10.64 76.99-10.17ZM78.28-4.37L78.28-4.37Q78.28-5.19 78.45-6.19Q78.63-7.20 78.98-8.31Q79.32-9.41 80.02-10.15Q80.72-10.89 81.64-10.89L81.64-10.89Q83.61-10.89 84.80-9.12Q85.99-7.34 85.99-5.17L85.99-5.17Q85.99-4.25 85.79-3.33Q85.60-2.42 85.19-1.54Q84.78-0.66 84.01-0.07Q83.24 0.51 82.22 0.59L82.22 0.59Q80.33 0.35 79.30-1.02Q78.28-2.38 78.28-4.37ZM81.76-9.82L81.76-9.82Q81.05-9.74 80.55-8.51Q80.06-7.28 79.92-6.12Q79.78-4.96 79.78-4.08L79.78-4.08Q79.78-2.93 80.48-1.96Q81.19-0.98 82.07-0.98L82.07-0.98Q82.71-0.98 83.22-1.48Q83.73-1.97 84.03-2.70Q84.33-3.42 84.48-4.16Q84.64-4.90 84.64-5.48L84.64-5.48Q84.64-7.16 83.88-8.41Q83.12-9.66 81.76-9.82ZM93.74-10.29L93.74-10.29L94.73-10.11L94.73-9.91Q94.73-8.51 94.90-5.19Q95.07-1.87 95.22-0.06L95.22-0.06Q94.81 0.10 94.44 0.10L94.44 0.10Q94.11 0.10 93.70 0L93.70 0L93.54-0.53Q92.22 0.21 91.03 0.21L91.03 0.21Q90.15 0.21 89.51-0.21Q88.86-0.62 88.51-1.22Q88.16-1.83 87.96-2.72Q87.75-3.61 87.70-4.34Q87.65-5.07 87.65-5.97L87.65-5.97Q87.65-8.59 87.98-10.79L87.98-10.79L88.90-10.58Q89.04-9.91 89.04-9.11L89.04-9.11Q89.04-8.65 88.99-7.55Q88.94-6.44 88.94-5.87L88.94-5.87Q88.94-4.86 89.03-4.13Q89.13-3.40 89.38-2.72Q89.64-2.03 90.17-1.66Q90.71-1.29 91.51-1.29L91.51-1.29Q92.41-1.29 93.45-1.70L93.45-1.70Q93.50-2.46 93.54-5.59Q93.58-8.72 93.74-10.29ZM98.27-8.20L98.27-8.20L98.36-0.08Q98.05 0.08 97.62 0.08L97.62 0.08Q97.29 0.08 96.88-0.02L96.88-0.02Q96.94-1.31 96.96-5.11Q96.98-8.90 97.13-10.73L97.13-10.73L98.05-10.52L98.11-9.37Q99.20-10.52 100.61-10.52L100.61-10.52Q101.33-10.52 101.76-10.42Q102.19-10.32 102.59-9.92Q102.99-9.52 103.20-8.86Q103.40-8.20 103.56-6.98Q103.73-5.76 103.80-4.13Q103.87-2.50 103.89-0.02L103.89-0.02Q103.77 0.02 103.42 0.02L103.42 0.02Q102.68 0.02 102.27-0.16L102.27-0.16Q102.19-0.49 102.19-1.25L102.19-1.25Q102.19-1.64 102.22-2.72Q102.25-3.79 102.25-4.39L102.25-4.39Q102.25-5.37 102.18-6.11Q102.11-6.85 101.91-7.57Q101.72-8.29 101.32-8.67Q100.92-9.06 100.32-9.06L100.32-9.06Q99.65-9.06 99.27-8.96Q98.89-8.86 98.73-8.72Q98.58-8.57 98.27-8.20ZM111.15-9.93L111.15-9.93L111.38-9.00Q110.82-8.96 109.68-8.79Q108.53-8.61 107.95-8.57L107.95-8.57Q108.06-7.85 108.08-6.69Q108.10-5.52 108.13-4.67Q108.16-3.81 108.31-2.96Q108.47-2.11 108.95-1.66Q109.43-1.21 110.25-1.21L110.25-1.21Q110.87-1.21 111.79-1.50L111.79-1.50Q112.18-0.74 112.36-0.39L112.36-0.39Q110.74 0.18 109.08 0.18L109.08 0.18Q108.47 0.18 108.01-0.18Q107.56-0.55 107.32-1.11Q107.07-1.66 106.92-2.51Q106.76-3.36 106.72-4.12Q106.68-4.88 106.68-5.87L106.68-5.87Q106.68-6.40 106.69-7.34Q106.70-8.29 106.70-8.63L106.70-8.63Q106.50-8.61 105.74-8.60Q104.98-8.59 104.86-8.59L104.86-8.59Q104.71-9.97 104.71-10.01L104.71-10.01Q104.86-9.97 105.18-9.97L105.18-9.97Q105.37-9.97 105.78-10.00Q106.19-10.03 106.39-10.03L106.39-10.03Q106.48-10.03 106.61-10.02Q106.74-10.01 106.78-10.01L106.78-10.01Q106.87-12.26 106.97-13.68L106.97-13.68L107.89-13.45Q107.91-12.96 107.92-12.40Q107.93-11.83 107.94-11.15Q107.95-10.46 107.95-10.09L107.95-10.09Q108.49-10.05 109.55-10.01Q110.62-9.97 111.15-9.93Z" fill="#ffffff" fontsize="21" transform="matrix(1,0,0,1,212.9,331.77500000000003)"></path><path xmlns="http://www.w3.org/2000/svg" id="SvgjsPath4020583" d="M50.66-56.10C50.41-56.44 49.98-56.70 49.56-56.78L39.44-58.99C38.51-59.16 37.57-58.57 37.40-57.63L33.66-40.04L32.22-52.87L32.22-52.96C31.79-56.27 29.92-58.74 26.44-58.48L20.32-58.23C19.38-58.14 18.87-57.63 18.70-56.87L14.03-37.40L12.50-56.10C12.41-57.12 11.82-57.72 10.71-57.63L0.77-57.12C0.26-57.12-0.17-56.87-0.43-56.53C-0.68-56.27-0.85-55.85-0.85-55.25L1.02-27.54L2.89-1.62C2.98-0.51 3.57 0 4.59 0L16.92 0C17.77 0 18.36-0.43 18.53-1.36L19.38-4.76C19.38-4.76 19.38-4.76 19.38-4.76L22.95-19.13L23.38-13.18L23.46-13.18L23.38-13.09L23.63-10.03C24.57-9.86 24.82-9.78 25.16-9.69L24.31-9.61C24.06-9.61 23.80-9.61 23.63-9.52L23.97-5.95L24.14-6.12C24.31-5.95 24.40-5.78 24.23-5.61C24.14-5.61 24.06-5.70 24.06-5.78L23.97-5.78L24.31-1.62C24.31-0.51 24.82 0 26.01 0L37.48 0C38.42 0 38.93-0.43 39.10-1.36L50.92-54.74C51.00-55.17 50.92-55.59 50.66-56.10ZM9.69-49.47L9.44-49.64L9.69-49.90L10.12-49.81C10.12-49.64 9.95-49.47 9.69-49.47ZM6.12-31.20C5.95-31.28 5.78-31.28 5.78-31.28L6.04-31.45C6.21-31.45 6.38-31.37 6.46-31.20ZM9.44-24.14L9.27-24.31C9.27-24.31 9.18-24.31 9.18-24.40C9.10-24.40 9.01-24.48 8.84-24.57L9.61-24.48ZM23.38-23.29C23.55-23.38 23.63-23.46 23.63-23.55C23.63-23.63 23.80-23.63 24.06-23.63C24.14-23.63 24.31-23.55 24.31-23.55C24.48-23.46 24.48-23.38 24.57-23.38C24.14-23.29 23.46-23.29 23.38-23.29ZM26.01-23.38C26.18-23.29 26.18-23.12 26.18-22.95C26.01-22.95 26.01-22.87 26.01-22.95C25.93-22.87 25.84-22.87 25.84-22.87C25.67-22.95 25.67-23.04 25.59-23.12C25.59-23.12 25.59-23.21 25.50-23.29C25.67-23.29 25.84-23.29 26.01-23.38ZM27.63-23.12L28.48-23.04L28.39-22.87L27.63-22.95ZM32.64-22.27C32.81-22.27 32.90-22.27 32.90-22.10C32.81-22.10 32.81-22.02 32.81-21.85C32.73-21.93 32.64-21.93 32.39-21.93L31.79-21.93C31.79-21.93 32.22-22.27 32.64-22.27ZM29.41-22.10L29.92-22.02L29.92-21.85L29.41-21.93ZM33.66-22.10C33.91-21.93 34.09-21.76 34.26-21.51L33.66-21.42ZM37.74-20.74C37.23-20.57 36.89-20.57 36.72-20.91C36.64-21.00 36.55-21.08 36.55-21.17C36.47-21.17 36.38-21.25 36.38-21.34C36.30-21.34 36.30-21.34 36.30-21.42C36.30-21.51 36.30-21.59 36.38-21.68C36.64-21.68 36.89-21.51 37.06-21.25C37.06-21.34 37.15-21.42 37.15-21.51C37.15-21.59 37.23-21.76 37.32-21.76C37.66-21.59 38.00-21.25 38.34-20.91ZM31.79-21.42C31.88-21.42 31.96-21.42 32.22-21.51C32.30-21.51 32.30-21.59 32.47-21.59C32.47-21.59 32.55-21.59 32.64-21.68C32.64-21.51 32.90-21.08 32.90-21.08C32.64-20.83 32.47-20.74 32.22-20.83C32.05-20.83 31.96-20.91 31.88-20.91C31.88-20.91 31.79-21.00 31.71-21.00ZM25.93-20.83C25.84-20.91 25.67-21.08 25.93-21.00C26.01-21.00 26.10-20.91 26.01-20.74ZM30.43-20.06C30.26-20.06 30.18-20.15 30.09-20.23L30.35-20.91L30.86-20.83C30.94-20.74 31.03-20.66 30.94-20.57C30.86-20.40 30.86-20.32 30.94-20.23C30.94-19.98 31.11-19.89 31.28-19.89C31.45-19.89 31.45-19.72 31.28-19.38C31.71-19.38 32.64-19.13 32.81-18.53L32.39-18.36L31.88-18.45C31.79-18.53 31.71-18.62 31.71-18.79L31.45-19.13C31.20-19.30 30.60-19.46 29.75-19.72C29.75-19.80 29.92-19.80 30.09-19.80C30.26-19.80 30.43-19.80 30.52-19.89C30.60-19.98 30.52-20.06 30.43-20.06ZM33.49-20.91C33.83-20.66 34.09-20.23 34.26-19.80C34.17-19.80 34-19.80 33.91-19.72C33.49-19.64 33.23-19.55 32.81-19.98C32.55-20.23 32.39-20.32 32.22-20.40C32.55-20.40 32.81-20.49 32.98-20.66C33.07-20.74 33.23-20.91 33.49-20.91ZM28.90-19.13L29.07-19.04L28.90-18.70L28.65-18.79ZM26.18-18.79L26.01-18.96L26.10-19.04L26.35-18.87ZM31.11-17.26C31.28-17.34 31.54-17.43 31.79-17.60C32.05-17.77 32.30-17.85 32.64-17.85L32.98-17.51C32.73-17.51 32.47-17.34 32.22-17.17C31.88-17 31.45-17 31.11-17.26ZM35.11-17.34C34.60-17 34.34-16.66 34.17-16.32C34.26-16.15 34.26-16.15 34.34-16.23C34.43-16.23 34.51-16.15 34.51-16.07C34.68-16.07 34.94-16.23 34.94-16.32L35.87-16.07C36.21-15.98 36.47-15.90 36.72-15.73C36.89-15.64 36.89-15.47 36.98-15.39C37.06-15.22 37.15-15.05 37.23-15.05C36.89-14.96 36.55-14.96 36.21-14.96C36.21-14.88 36.21-14.79 36.04-14.71C35.87-14.62 35.87-14.45 35.87-14.37C35.87-14.62 35.70-14.79 35.53-15.13C35.53-15.05 35.36-14.88 35.11-14.62L34.51-15.05C34.26-15.13 34-15.30 33.75-15.47C34-15.47 34.17-15.47 34.34-15.64L34.34-15.81C34.17-16.07 33.83-16.23 33.58-16.23C33.83-16.49 33.83-16.66 33.66-16.83C33.49-16.92 33.32-17.17 33.23-17.34C33.49-17.43 33.83-17.51 34.17-17.85C34.34-17.68 34.51-17.60 34.60-17.60C34.85-17.51 35.02-17.43 35.11-17.34ZM24.82-17.51L24.82-17.68L25.25-17.60L25.25-17.43ZM35.28-17.34L35.79-17.34L35.70-17.17L35.19-17.17ZM29.24-17.09L29.58-17.17L29.67-17L29.24-16.92ZM36.38-16.75C36.55-16.83 36.64-16.92 36.72-17.09L37.57-17L37.57-16.32L37.15-16.15L36.47-16.23L36.21-16.49C36.21-16.58 36.21-16.66 36.38-16.75ZM30.18-16.15C30.01-16.07 29.92-16.07 29.75-16.07C29.58-15.98 29.41-15.98 29.33-15.98C29.33-16.07 29.41-16.15 29.58-16.32C29.75-16.49 29.84-16.66 29.84-16.83C29.75-16.92 29.92-16.83 30.43-16.66C30.69-16.58 30.86-16.49 30.94-16.32C30.94-16.32 30.69-16.23 30.18-16.15ZM27.20-16.83L27.46-16.83C27.46-16.75 27.54-16.75 27.54-16.75C27.37-16.49 27.37-16.41 27.46-16.41C27.37-16.41 27.46-16.32 27.54-16.15C27.63-16.23 27.80-16.32 27.88-16.23C28.05-16.23 28.22-16.15 28.22-16.15C27.80-15.98 27.46-15.90 27.20-15.90C27.03-16.15 26.86-16.58 27.20-16.83ZM38.17-15.22C38.25-15.05 38.25-14.88 38.08-14.79L37.83-14.79C37.74-14.88 37.66-14.96 37.57-14.96C37.48-14.96 37.40-15.05 37.40-15.13C37.40-15.30 38.68-15.98 38.08-15.64C38.08-15.47 38.17-15.30 38.17-15.22ZM27.12-15.64C27.20-15.64 27.37-15.64 27.54-15.56C27.63-15.47 27.80-15.47 27.88-15.47C27.63-15.39 27.54-15.30 27.54-15.30C27.46-15.22 27.37-15.22 27.20-15.22L27.20-15.39C27.12-15.39 27.12-15.47 27.12-15.64ZM28.22-15.05L28.22-15.22L28.90-15.13L28.82-14.96ZM30.60-15.13C30.43-15.05 30.35-14.96 30.35-14.88L29.58-14.96L29.84-15.22ZM32.13-14.62C32.13-14.62 32.05-14.71 31.79-14.79C31.71-14.96 31.79-14.96 31.96-14.96C32.13-14.96 32.13-14.88 32.13-14.62ZM25.50-14.88C25.50-14.88 25.67-14.79 25.84-14.62C26.01-14.62 26.01-14.45 26.01-14.37L25.50-14.45ZM37.40-13.26C37.15-13.60 36.89-13.77 36.64-13.86L36.89-14.71C37.06-14.54 37.23-14.37 37.40-14.28C37.48-14.03 37.66-13.94 37.83-13.94L38.25-13.94C37.91-13.77 37.57-13.60 37.40-13.26ZM27.03-14.62L27.54-14.54C27.71-14.28 27.80-14.11 27.80-14.03C27.71-14.03 27.71-14.03 27.71-13.94L27.71-13.86C27.46-13.77 27.20-13.94 26.86-14.37ZM29.24-14.62L29.41-14.62L29.41-14.20L29.16-14.28ZM34.77-14.28L34.34-14.28L34.34-14.45L34.85-14.45ZM34.94-13.69L35.19-13.69C35.36-13.69 35.53-13.86 35.79-14.20C35.79-13.86 35.87-13.69 36.04-13.52C36.04-13.52 36.04-13.43 35.96-13.35C35.87-13.35 35.87-13.26 35.87-13.18C35.79-13.18 35.70-13.18 35.62-13.09L35.19-13.09L34.60-13.18L34.60-13.60ZM29.67-13.69L29.84-13.43L29.84-13.18C29.92-13.09 30.01-13.01 30.09-13.01C30.26-12.92 30.35-12.92 30.43-12.92L30.77-13.09C30.77-13.18 30.60-13.26 30.35-13.52C30.43-13.60 30.60-13.60 30.86-13.77C31.03-13.77 31.20-13.77 31.37-13.94C31.37-13.86 31.45-13.86 31.54-13.86L31.62-13.77L31.79-13.77C31.54-13.60 31.37-13.43 31.37-13.26L31.62-13.01C31.96-12.92 32.13-13.09 32.13-13.60C32.39-13.52 32.64-13.52 32.98-13.43C33.15-13.43 33.23-13.35 33.32-13.35C33.15-13.09 32.64-12.92 32.13-12.92C32.13-12.84 32.13-12.84 32.05-12.84C32.05-12.75 31.96-12.75 31.96-12.75C31.88-12.75 31.88-12.67 31.88-12.50L31.79-12.16C32.22-11.90 32.64-11.56 33.23-11.56C33.15-11.56 32.98-11.39 32.64-11.31C32.47-11.14 32.30-11.05 32.13-10.97C32.13-10.71 32.22-10.54 32.47-10.29C32.39-10.20 32.22-10.12 32.05-10.03C31.88-9.95 31.71-9.86 31.62-9.78L31.62-9.27C31.45-9.18 31.28-9.18 31.03-9.18C31.11-9.35 31.11-9.61 30.94-9.86C30.77-10.03 30.43-10.12 30.09-10.12C30.18-10.12 30.26-10.12 30.43-10.29C30.86-10.46 31.45-10.97 31.62-11.22C31.96-11.56 32.05-11.73 31.54-11.99C31.20-12.16 31.11-12.24 31.11-12.16C30.86-12.41 30.77-12.58 30.43-12.84L30.01-12.92L29.92-12.92L29.92-12.41C30.01-12.33 30.09-12.24 30.18-12.24C30.35-12.16 30.52-12.07 30.60-12.07C30.52-12.07 30.52-12.07 30.52-11.99C30.43-11.99 30.43-11.90 30.43-11.82C30.18-11.90 29.92-12.07 29.58-12.33C28.90-12.92 28.99-13.26 29.67-13.69ZM35.96-11.65C35.45-11.65 35.02-11.56 34.60-11.39L34.68-11.73C34.68-11.90 34.77-11.99 34.85-12.07C34.94-12.07 35.02-12.16 34.85-12.33C35.11-12.41 35.28-12.41 35.53-12.33C35.70-12.24 35.96-12.24 36.30-12.16L36.21-12.24L36.04-12.24L36.13-12.75C36.38-12.92 36.64-12.92 36.89-12.92C36.89-12.84 36.98-12.75 36.98-12.67C37.06-12.50 36.98-12.24 36.98-11.82C36.64-11.73 36.30-11.73 35.96-11.65ZM26.52-12.75L26.78-12.75L26.61-11.56L26.35-11.65ZM37.48-12.41C37.66-12.67 37.91-12.67 38.08-12.33ZM36.38-12.16L36.30-12.16ZM25.16-11.14L25.16-11.56C25.33-11.39 25.33-11.22 25.16-11.14ZM29.33-11.22L29.50-11.39L30.26-11.14ZM26.95-10.71C27.03-10.79 27.54-10.79 28.31-10.88C28.31-10.71 28.22-10.71 28.14-10.63C28.05-10.54 28.05-10.46 27.97-10.29C27.97-10.03 28.14-9.69 28.48-9.35C27.54-9.18 27.63-9.86 27.80-10.20C27.71-10.37 27.37-10.54 26.95-10.71ZM35.79-8.33C35.53-8.33 35.19-8.33 34.68-8.16C34.43-7.99 34.17-7.99 34-7.91C33.83-7.82 33.66-7.82 33.49-7.74C33.49-7.91 33.66-7.99 33.91-8.08C34.17-8.08 34.43-8.16 34.68-8.25C35.19-8.33 35.87-8.67 35.87-9.01C35.53-9.18 35.28-9.44 35.02-9.78C34.77-10.03 34.51-10.29 34.26-10.46C34.34-10.37 34.51-10.46 34.68-10.63C35.19-10.88 35.53-10.88 35.70-10.63C35.87-10.54 35.87-10.37 35.87-10.37C35.70-10.37 35.45-10.37 35.02-10.29C35.45-10.03 35.70-9.78 35.87-9.61C36.04-9.44 36.38-9.27 36.80-9.01C36.64-8.84 36.21-8.50 36.13-8.33C36.13-8.33 36.21-8.33 36.21-8.25C36.04-8.33 35.96-8.33 35.79-8.33ZM37.74-10.20C37.74-10.20 37.57-10.12 37.23-10.03L36.98-10.29C37.06-10.46 37.23-10.54 37.48-10.46C37.74-10.37 37.83-10.29 37.74-10.20ZM27.20-9.52C26.95-9.52 26.78-9.44 26.69-9.44C26.52-9.35 26.35-9.35 26.18-9.35C26.52-9.35 26.61-9.52 26.61-9.78C26.52-9.95 26.52-10.12 26.69-10.37L27.20-10.12ZM36.98-9.69L36.55-9.78L36.55-9.95L36.98-9.86ZM30.35-8.76L30.43-8.93L30.77-8.93L30.77-8.67ZM30.26-8.08C30.43-8.16 30.52-8.25 30.60-8.33L30.94-8.33C31.11-8.33 31.37-8.16 31.54-7.99C31.71-8.08 31.79-8.16 31.79-8.33C31.79-8.50 31.88-8.59 32.05-8.67L32.73-8.59C32.73-8.50 32.73-8.42 32.81-8.33L32.81-8.08C32.05-7.99 31.37-8.08 31.28-7.48C31.11-7.48 30.35-7.91 30.26-8.08ZM29.75-7.99L30.26-7.74L30.09-7.57L29.58-7.91ZM34.85-6.46L35.02-7.06C34.77-7.14 34.51-7.23 34.09-7.23L34.34-7.65C35.02-7.48 35.28-7.31 35.19-7.40C35.36-7.31 35.62-7.31 35.87-7.23L35.45-6.89L35.70-6.63C35.70-6.55 35.87-6.46 35.96-6.38C35.87-6.38 35.62-6.29 35.36-5.95C34.94-6.04 34.77-6.21 34.85-6.46ZM31.96-7.14C32.13-7.40 32.30-7.48 32.30-7.48C32.39-7.31 32.55-7.23 32.81-7.14C33.15-6.80 33.32-6.72 33.32-6.72C32.81-6.63 32.39-6.72 31.79-6.80C31.79-6.97 31.79-7.06 31.96-7.14ZM37.06-7.40L36.98-7.14L36.21-7.23L36.21-7.48ZM25.33-6.89L25.33-6.97L25.16-7.14C25.25-7.23 25.33-7.31 25.50-7.31C25.50-7.31 25.67-7.31 25.76-7.40L25.84-6.80ZM27.29-6.80L27.54-7.06L27.80-6.97L27.54-6.63ZM29.67-6.63C29.67-6.80 30.01-6.89 30.26-6.89C30.26-6.63 30.09-6.21 30.77-6.04L30.43-6.04C30.26-5.95 29.92-5.95 29.58-6.04ZM26.35-6.46L26.44-6.38L26.44-6.29C26.44-6.38 26.35-6.38 26.35-6.38C26.18-6.38 26.18-6.46 26.35-6.46ZM33.75-6.46C33.83-6.46 34-6.46 34.09-6.38C34.17-6.29 34.26-6.21 34.43-6.21C34.34-6.04 34.17-5.87 33.91-5.61L33.32-5.61C33.58-5.95 33.75-6.29 33.75-6.46ZM37.32-4.76C36.72-4.76 35.87-4.93 35.70-5.19C35.70-5.19 35.79-5.27 35.79-5.44C35.87-5.61 36.38-5.61 36.38-5.44L36.55-5.36L36.89-5.87C36.89-5.95 37.06-6.12 37.48-6.29ZM29.41-5.53C29.33-5.44 29.24-5.27 29.24-5.19C29.07-5.19 28.99-5.36 28.82-5.61C28.56-5.78 28.48-6.04 28.39-6.12C28.56-6.12 28.65-5.95 28.90-5.87C29.07-5.70 29.41-5.70 29.67-5.87C29.67-5.78 29.58-5.61 29.41-5.53ZM27.03-5.10C27.03-5.02 26.95-4.93 26.86-4.85C26.61-4.76 25.67-5.61 26.01-5.36L26.61-5.78C26.69-5.70 26.69-5.61 26.86-5.61C26.95-5.61 27.03-5.53 27.03-5.53C27.12-5.53 27.20-5.53 27.20-5.44C27.12-5.44 27.03-5.27 27.03-5.10ZM35.28-5.53L34.85-5.44L34.85-5.61L35.19-5.70ZM34.68-3.06C34.26-3.06 33.83-2.98 33.41-2.98L30.69-3.23C30.35-3.23 30.18-3.57 30.18-3.66C30.43-3.74 30.86-3.74 31.54-3.57C31.45-3.74 31.37-3.91 31.11-4.08C30.86-4.25 30.60-4.42 30.43-4.59C30.18-4.85 29.92-4.93 29.75-4.93C30.26-4.93 30.60-5.19 30.77-5.61L31.28-5.61C31.54-5.61 32.47-5.27 33.07-4.93C32.64-5.10 32.13-5.02 31.62-4.76L31.62-4.25C31.62-4.17 31.71-4.08 31.79-4.08C31.96-4.08 31.96-4.00 32.05-3.91C32.22-3.91 32.30-3.74 32.39-3.66C32.64-3.74 32.81-3.74 32.90-3.83C33.07-3.91 33.23-3.91 33.41-3.91L33.58-3.91L33.66-3.83C33.66-3.74 33.66-3.74 33.75-3.74C33.91-3.83 34.09-4.00 34.17-4.17C34.34-4.42 34.77-4.50 35.19-3.91C35.36-3.57 35.53-3.40 35.70-3.15C35.53-3.23 35.11-3.15 34.68-3.06ZM24.82-5.10C24.57-4.93 24.40-4.76 24.31-4.59C24.31-4.76 24.82-5.19 25.16-5.36C25.08-5.27 24.99-5.19 24.82-5.10ZM28.14-4.50C27.97-4.59 27.80-4.68 27.63-4.85C27.88-5.02 28.05-5.10 28.22-5.10C28.39-4.85 28.39-4.68 28.14-4.50ZM33.83-4.93C33.91-4.93 34-4.93 34.17-5.02C34.26-5.10 34.34-5.10 34.43-5.10C34.51-5.02 34.51-4.93 34.60-4.93C34.60-4.93 34.60-4.85 34.68-4.85L34.68-4.59L33.91-4.59L34-4.68C34-4.76 33.91-4.76 33.83-4.93ZM35.70-4.25L35.11-4.33L35.19-4.59L35.70-4.59ZM26.95-3.74L26.61-4.00C26.44-4.08 26.35-4.17 26.18-4.42L26.95-4.33C26.95-4.33 26.95-4.25 27.03-4.08C27.12-3.91 27.03-3.83 26.95-3.74ZM94.78-45.90L83.22-45.48L82.53-20.49C82.28-20.49 82.03-20.32 81.86-20.06C82.20-19.89 82.20-19.80 82.45-19.80L82.53-19.80L82.45-17.77L82.20-17.77C82.11-17.68 82.03-17.60 81.86-17.60C81.69-17.51 81.52-17.43 81.43-17.43C81.60-17.17 81.69-16.92 81.69-16.75L81.69-16.49L81.52-16.32L81.43-16.32C81.43-16.23 81.34-16.15 81.34-16.07L81.60-15.22L81.77-14.45C81.77-14.37 81.69-14.20 81.52-14.03C81.34-13.86 81.26-13.77 81.26-13.69C81.26-13.60 81.34-13.52 81.34-13.35L81.52-13.09C81.60-12.92 81.60-12.75 81.52-12.58C81.43-12.16 81.52-11.90 81.77-11.90L82.28-11.90L82.20-11.39C82.20-11.39 82.11-11.56 81.94-11.73C81.86-11.48 81.69-11.39 81.52-11.39C81.34-11.39 81.18-11.39 81.00-11.31C81.00-11.31 80.92-11.31 80.92-11.22L80.84-11.22L80.84-11.05C80.84-10.88 80.92-10.88 81.00-10.88C81.09-10.88 81.18-10.97 81.43-10.97C81.52-10.97 81.60-10.88 81.69-10.88L81.69-10.71C81.69-10.63 81.60-10.46 81.52-10.37C81.43-10.20 81.34-10.03 81.34-9.86C81.52-9.78 81.69-9.78 81.77-9.78L82.03-9.61C82.20-9.44 82.03-9.27 81.77-9.18C81.43-9.10 81.26-9.01 81.26-8.93C81.60-8.67 81.69-8.50 81.69-8.42C81.69-8.25 81.52-8.08 81.18-7.99C81.18-7.82 81.26-7.65 81.34-7.57C81.34-7.40 81.52-7.31 81.69-7.23C81.52-7.14 81.52-7.06 81.43-7.06C81.34-6.97 81.26-6.97 81.26-6.89C81.26-6.63 81.26-6.46 81.34-6.29C81.43-6.04 81.43-5.78 81.43-5.61C81.43-5.61 81.18-5.27 81.18-5.10C81.18-5.02 81.26-4.85 81.43-4.68C81.60-4.50 81.69-4.42 81.69-4.33C81.69-4.17 81.60-4.00 81.43-3.83C81.26-3.57 81.18-3.40 81.18-3.32C81.18-3.15 81.52-2.55 81.94-2.55L82.03-2.55L81.94-1.96C81.94-0.85 81.34-0.34 80.33-0.26L68.77 0C67.83 0 66.89-0.85 67.06-1.79L67.41-15.39C67.41-15.47 67.49-15.47 67.49-15.47L67.41-15.47L67.75-25.93L68.09-25.76C68.17-25.76 68.25-25.76 68.25-25.84L68.25-26.01C68.09-26.10 67.92-26.10 67.75-26.01L68.25-44.20L56.52-41.99C55.42-41.74 54.48-42.50 54.48-43.69L54.99-56.53C55.08-57.63 55.59-58.14 56.70-58.23L94.86-58.99C95.88-58.99 96.65-58.23 96.65-57.21L96.39-47.60C96.31-46.50 95.80-45.99 94.78-45.90ZM61.97-49.22L61.45-49.22L61.45-48.96L61.97-48.96ZM69.36-48.96L68.94-48.96L68.94-48.62L69.36-48.62ZM59.76-48.45L59.25-48.79L58.73-48.79C58.48-48.45 58.40-48.20 58.56-47.94C58.73-47.94 59.08-47.94 59.41-47.77L59.76-48.11ZM66.56-48.79L66.56-48.28C66.72-48.20 66.81-48.20 66.89-48.20L66.98-48.28L67.15-48.28C67.23-48.28 67.23-48.45 67.23-48.54L67.23-48.79ZM55.68-48.45L54.91-48.45L54.91-48.20L55.68-48.20ZM61.29-48.45C60.95-48.45 60.77-48.37 60.61-48.20C60.44-48.03 60.27-47.86 60.09-47.77C60.18-47.60 60.44-47.60 60.61-47.52C60.69-47.43 60.86-47.43 61.12-47.60C60.95-47.77 61.03-47.94 61.29-48.03C61.29-48.11 61.37-48.11 61.45-48.20C61.63-48.20 61.63-48.28 61.80-48.28C61.63-48.37 61.54-48.37 61.45-48.45ZM58.82-47.77L58.82-47.43L59.93-47.60ZM62.30-47.01L61.97-47.01L61.80-47.09L61.63-47.09C61.29-46.67 61.12-46.33 61.97-46.24L62.30-46.41ZM68.25-46.75L68-46.75C68-46.58 68.09-46.41 68.34-46.24C68.51-46.41 68.59-46.58 68.59-46.84C68.42-46.84 68.34-46.75 68.25-46.75ZM59.67-46.33L59.16-46.33L59.16-45.99L59.67-45.99ZM65.03-45.90L65.03-46.16C64.52-46.24 64.17-46.33 63.84-46.33C63.50-46.33 63.33-46.16 63.16-45.82C63.33-45.82 63.50-45.82 63.66-45.73L63.92-45.73C64.00-45.65 64.09-45.65 64.17-45.65C64.69-45.56 64.94-45.65 65.03-45.90ZM70.13-21.42L69.95-21.76L69.78-21.59L69.53-21.42L69.70-21.34L69.70-21.25ZM79.31-20.74L78.80-20.74L78.80-20.57C78.88-20.57 78.97-20.49 78.97-20.49C78.97-20.49 78.97-20.57 79.05-20.57C79.14-20.57 79.14-20.57 79.31-20.74ZM70.30-18.96C70.30-19.13 70.21-19.21 69.95-19.30C69.78-19.21 69.70-19.38 69.70-19.72C69.28-19.04 68.85-18.36 69.11-17.60L69.02-17.34C68.94-17.34 68.94-17.26 68.94-17.17C68.94-17 69.02-16.92 69.11-16.83L68.85-16.58C68.77-16.49 68.68-16.49 68.68-16.32C68.68-16.32 68.77-16.15 68.94-16.07C69.11-15.90 69.19-15.81 69.19-15.73C69.19-15.56 69.11-15.30 68.85-14.96L68.85-14.37C68.94-14.28 68.94-14.03 68.85-13.60L68.68-11.73C68.68-11.48 68.59-11.14 68.59-10.79C68.68-10.71 68.77-10.71 68.85-10.71C68.94-10.63 69.11-10.63 69.19-10.54C69.53-10.46 69.70-10.46 69.78-10.46C69.87-10.46 69.95-10.46 70.04-10.54L70.13-10.63C70.13-10.71 70.04-10.79 69.95-10.79C69.78-10.88 69.78-10.97 69.70-11.05C69.95-11.05 70.04-11.14 70.21-11.39C69.87-11.56 69.87-11.82 69.95-12.07C70.04-12.41 69.95-12.92 69.95-13.60C69.87-13.60 69.78-13.69 69.78-13.69C70.13-13.86 70.21-14.03 70.21-14.28L69.95-14.79C69.87-15.13 69.78-15.39 69.78-15.64C69.78-15.81 69.70-16.07 69.78-16.23C69.78-16.49 69.70-16.58 69.62-16.66C69.87-16.75 70.13-17.60 70.13-17.85L70.21-18.62ZM82.37-16.23L82.37-15.98L82.28-15.98C82.20-16.07 82.28-16.15 82.28-16.15C82.37-16.15 82.37-16.15 82.37-16.23ZM80.67-12.92L80.41-12.92C80.33-12.92 80.24-12.92 80.16-13.01L80.16-12.75L80.50-12.67C80.67-12.75 80.67-12.75 80.67-12.92ZM69.87-6.63L69.70-10.12C69.62-10.12 69.53-10.20 69.45-10.20C69.28-10.29 69.28-10.37 69.19-10.37C68.94-10.20 68.42-9.52 68.51-9.35C68.51-9.27 68.51-9.10 68.59-8.93C68.68-8.84 68.68-8.76 68.68-8.59C68.59-8.08 68.59-7.74 68.59-7.57C68.59-7.48 68.51-7.40 68.51-7.40C68.51-7.31 68.51-7.23 68.42-7.14C68.59-6.89 68.59-6.72 68.51-6.72C68.42-6.72 68.34-6.72 68.34-6.63C68.34-6.38 68.34-6.21 68.51-6.12C68.51-6.04 68.68-5.70 68.94-5.36C69.02-5.36 69.19-5.44 69.36-5.44C69.53-5.70 69.62-5.95 69.62-6.21C69.45-6.46 69.62-6.55 69.87-6.63ZM141.10-58.48L130.99-58.74C129.79-58.74 129.20-58.23 129.20-57.12L127.84-34.60L120.78-53.04L120.70-53.13C119.25-56.44 116.70-58.99 112.88-58.74L104.72-58.48C103.61-58.40 103.10-57.89 103.02-56.87L101.49-39.10C100.72-30.09 100.38-22.78 99.96-14.37C99.70-10.20 99.45-5.95 99.28-1.79C99.28-0.77 99.96 0 100.98 0L112.45 0C113.56 0 114.16-0.60 114.24-1.70L114.83-31.79L118.06-23.29C118.06-23.29 118.15-23.38 118.23-23.38C118.41-23.38 118.57-23.46 118.66-23.46L118.83-23.38L119.25-23.46C118.91-23.21 118.57-23.04 118.23-22.87L124.95-5.02L125.12-5.02L125.12-4.93L125.03-4.93L126.31-1.36C126.65-0.60 127.16-0.26 128.01-0.26L139.23-0.51C140.34-0.51 140.93-1.10 140.93-2.30C140.93-8.67 140.93-15.13 141.01-21.59L140.59-21.59L140.76-21.76L140.59-21.85L141.01-21.85L141.01-22.02C141.01-22.10 140.93-22.10 140.84-22.10L140.25-22.10C139.82-22.10 139.57-22.10 139.40-22.19C139.23-22.10 139.14-22.10 139.06-22.10L138.89-22.10L139.06-22.27L138.89-22.44C139.49-22.44 139.91-22.44 140.00-22.53C140.08-22.61 140.34-22.61 140.59-22.61L141.01-22.61C141.01-23.89 141.10-25.16 141.10-26.44C141.10-27.71 141.10-28.99 141.19-30.26C141.35-39.10 141.95-47.86 142.80-56.61C142.80-57.55 142.12-58.48 141.10-58.48ZM109.99-46.58C110.07-46.50 110.16-46.33 110.16-46.07L109.65-46.33C109.73-46.50 109.82-46.58 109.99-46.58ZM108.46-42.42L108.97-42.42L108.97-42.16L108.46-42.16ZM110.33-41.74C110.33-41.82 110.24-41.91 110.16-41.99L110.16-42.33L110.67-42.33C110.67-42.08 110.58-41.91 110.33-41.74ZM114.32-41.82C114.24-41.82 114.16-41.74 114.16-41.74C114.16-41.74 114.07-41.74 113.90-41.65C113.81-41.82 113.73-42.08 113.73-42.33C114.07-42.16 114.24-41.91 114.32-41.82ZM112.37-41.23C112.20-41.23 112.11-41.23 112.11-41.31C112.03-41.31 111.94-41.40 111.77-41.48L111.60-41.65L111.60-41.57L110.92-41.57L110.92-41.91L111.60-41.91L111.60-41.65L113.13-41.65L113.05-41.48C112.80-41.31 112.54-41.23 112.37-41.23ZM113.13-41.57L113.81-41.40L113.64-41.14L113.13-41.31ZM114.24-41.05L114.24-41.31C114.16-41.40 114.24-41.48 114.32-41.57C114.49-41.57 114.66-41.48 114.92-41.31C114.75-41.14 114.49-41.05 114.24-41.05ZM111.44-40.97C111.69-40.97 111.94-40.97 112.20-40.80C111.86-40.63 111.60-40.72 111.44-40.97ZM110.84-36.13L110.16-36.13L110.16-36.47L110.84-36.47ZM114.66-35.70L114.66-35.36L113.81-35.36L113.81-35.70ZM114.83-32.64C114.58-32.81 114.49-33.15 114.41-33.49C115.09-33.23 115.17-32.98 114.83-32.64ZM121.04-33.32L121.47-33.15L120.36-32.39L120.19-32.64C121.04-32.64 121.04-32.81 121.04-33.32ZM113.30-33.15L113.90-33.15L113.90-32.64L113.30-32.64ZM119.34-32.47L119.77-32.47L119.77-31.96L119.34-31.96ZM111.77-32.22L112.63-32.22C112.54-31.79 112.20-31.62 111.77-32.22ZM120.87-31.79L120.87-31.54L120.78-31.54C120.70-31.71 120.61-31.79 120.61-31.88C120.61-31.96 120.70-32.05 120.70-32.13L120.87-31.96C120.87-31.88 120.95-31.79 120.87-31.79ZM115.34-31.96L116.53-31.96C116.28-31.79 115.85-31.79 115.34-31.96ZM114.32-30.94L113.47-30.94L113.47-31.28L114.32-31.28ZM109.82-30.43L109.82-30.86C109.99-31.03 110.33-31.11 110.67-31.11L110.67-30.94C110.75-30.77 110.84-30.60 110.84-30.43ZM121.55-30.77L121.55-30.43L121.21-30.43L121.21-30.77ZM120.10-29.92L120.70-29.92L120.70-29.67L120.10-29.67ZM128.18-29.92L128.35-29.92L128.18-29.67L128.09-29.75ZM109.82-29.16L109.82-29.67C110.58-29.50 110.75-29.24 110.33-28.99ZM110.84-29.24L111.44-29.24L111.44-28.90L110.84-28.90ZM120.70-28.22C120.70-28.31 120.61-28.39 120.53-28.48C120.61-28.56 120.61-28.65 120.61-28.65C120.61-28.65 120.70-28.65 120.87-28.73L121.13-28.99C121.13-29.07 121.21-29.07 121.30-29.24C121.30-28.82 121.38-28.48 121.47-28.22L120.87-28.14ZM118.15-27.54L117.55-27.54L117.55-27.71C117.55-27.88 117.64-28.05 117.72-28.05C117.81-27.97 117.89-27.88 118.06-27.88C118.06-27.88 118.06-27.80 118.15-27.80ZM110.41-27.71L110.84-27.12L109.99-27.12C109.99-27.37 110.16-27.54 110.41-27.71ZM132.69-27.46L132.51-27.46L132.51-27.71L132.69-27.71ZM113.05-26.27L112.54-26.27L112.54-26.95L113.05-26.95ZM109.31-26.27L108.63-26.27L108.63-26.86L109.31-26.86ZM122.40-25.50L122.40-24.99C121.89-24.99 121.63-25.25 121.63-25.50ZM124.44-24.40L124.19-24.31C124.10-24.31 124.02-24.31 123.93-24.23C123.50-24.31 123.25-24.48 123.25-24.82C123.50-24.82 123.93-24.65 124.44-24.40ZM121.21-24.40L121.72-24.31L121.38-23.80L120.95-23.97ZM122.74-24.14L121.72-23.89L121.63-24.14L122.57-24.40ZM130.47-24.40L130.81-24.31L130.56-23.97L130.22-24.14ZM123.84-23.89L124.53-24.06L124.61-23.72L123.93-23.63ZM107.44-23.21C107.44-23.46 107.61-23.63 108.12-23.89L108.29-23.38C108.12-23.29 107.78-23.21 107.44-23.21ZM120.53-23.29C120.36-23.21 120.28-23.21 120.28-23.21C120.28-23.21 120.19-23.29 119.94-23.38C119.85-23.38 119.85-23.46 119.77-23.46C119.68-23.46 119.59-23.46 119.51-23.55C119.85-23.63 120.02-23.72 120.10-23.89C120.36-23.80 120.53-23.63 120.70-23.46ZM109.99-23.21L109.31-22.95L109.31-23.29L109.82-23.55ZM108.46-22.87C108.72-22.78 108.97-22.78 109.31-22.70L109.56-22.53C109.31-22.61 109.56-22.53 110.33-22.10L108.63-22.10ZM121.38-21.42C121.30-21.42 121.30-21.51 121.30-21.51C121.21-21.59 121.21-21.68 121.30-21.76C121.55-21.76 121.72-21.59 121.80-21.25C121.63-21.34 121.47-21.42 121.38-21.42ZM130.31-21.25L130.64-21.25C130.73-21.00 130.73-20.91 130.56-20.83C130.39-20.91 130.31-21.08 130.22-21.34ZM121.72-21.17C121.89-21.17 122.06-21.08 122.40-21.00L122.31-20.91L122.23-20.91C122.14-20.83 122.06-20.74 121.97-20.74L121.89-20.74C121.80-20.66 121.72-20.66 121.72-20.66ZM125.03-21.00L125.29-21.08L125.46-20.49L125.03-20.49ZM109.99-21.00L110.84-21.00L110.84-20.57L109.99-20.57ZM123.08-19.89L122.91-19.55L122.48-19.72L122.66-19.98ZM111.01-19.21L110.50-19.21L110.50-19.80L111.01-19.80ZM121.47-19.21L121.80-18.96C121.55-18.87 121.38-18.87 121.30-18.87C121.04-18.96 121.21-19.21 121.47-19.21ZM125.03-18.45L125.12-18.45C125.29-18.36 125.29-18.28 125.29-18.19C125.29-18.11 125.38-18.02 125.46-17.94L125.63-18.02C125.63-18.02 125.72-18.02 125.80-18.11L125.97-18.11C126.05-18.11 126.22-18.11 126.48-18.19C126.22-17.94 125.97-17.85 125.80-17.68C125.63-17.51 125.46-17.43 125.29-17.34C125.20-17.43 125.03-17.60 124.95-17.77C124.78-18.02 124.61-18.19 124.61-18.36L124.78-18.36C124.95-18.36 124.95-18.36 125.03-18.45ZM122.14-18.28L122.74-18.36L122.91-18.11L122.31-17.94ZM109.99-17.60C109.99-17.51 109.91-17.34 109.82-17.17L109.31-17.51C109.31-17.60 109.31-17.68 109.48-17.77C109.48-17.85 109.65-17.85 109.99-17.85ZM127.33-17.43L127.50-17.17L126.82-17L126.05-17C125.97-16.83 125.88-16.83 125.80-16.75L125.63-16.92C125.46-16.92 125.38-17 125.29-17.26C125.46-17.26 125.55-17.26 125.63-17.34L126.31-17.34C126.31-17.26 126.22-17.17 126.22-17.17C126.31-17.26 126.48-17.26 126.48-17.26L126.65-17.26ZM128.09-17.17L128.35-16.66L128.01-16.49L127.67-17ZM121.55-16.75L121.55-17.09C121.89-17.09 122.14-17 122.31-16.75C121.97-16.66 121.72-16.66 121.55-16.75ZM114.16-15.98L113.56-15.98L113.56-16.49L114.16-16.49ZM125.80-15.90L125.80-16.23L126.48-16.41C126.82-16.32 126.99-16.15 126.99-15.98L126.99-15.73C126.65-15.64 126.22-15.64 125.80-15.90ZM123.16-16.23L123.50-16.23L123.50-15.81L123.16-15.81ZM124.61-15.47L124.27-16.07L124.61-15.98C125.12-15.81 125.12-15.90 125.29-15.64ZM130.73-14.79C130.99-14.62 130.99-14.37 130.81-14.28C130.64-14.28 130.47-14.37 130.22-14.45ZM126.82-14.54L127.33-13.35L126.99-13.26L126.48-14.45ZM123.76-14.03L123.16-14.03L123.16-14.45L123.76-14.45ZM123.67-13.26C123.50-13.35 123.42-13.35 123.42-13.35C123.33-13.35 123.25-13.35 123.25-13.43C123.08-13.43 122.91-13.43 122.91-13.60L123.76-13.86C123.59-13.60 123.59-13.35 123.67-13.26ZM129.28-11.90C129.12-12.07 129.03-12.24 128.94-12.50C128.69-12.58 128.52-12.58 128.44-12.58C128.18-12.58 128.01-12.67 127.84-12.67L128.09-12.84L128.26-13.01C128.52-13.09 128.60-13.09 128.69-13.18C128.78-13.18 128.94-13.26 129.20-13.35L129.28-13.26C129.20-13.26 129.20-13.18 129.20-13.18L129.20-12.75C129.28-12.50 129.63-12.24 130.31-11.90C129.79-11.73 129.45-11.65 129.28-11.90ZM126.14-12.24L125.80-13.01C126.31-12.75 126.48-12.58 126.14-12.24ZM127.50-10.97C127.84-11.22 128.09-11.31 128.09-11.39C128.18-11.48 128.18-11.56 128.09-11.65L128.09-11.82C128.01-11.82 128.01-11.90 128.01-11.90C127.92-12.07 127.84-12.24 127.84-12.41C128.01-12.33 128.18-12.24 128.26-12.24L128.60-12.24L128.86-11.65L128.69-11.56L128.52-11.39C128.35-11.22 128.26-11.22 128.26-11.22C128.18-11.14 127.92-11.05 127.50-10.97ZM109.99-11.65L109.48-11.65L109.48-12.24L109.99-12.24ZM125.20-10.63C125.20-10.63 125.12-10.63 125.03-10.71C125.29-10.88 125.63-10.97 125.97-11.05C126.31-11.05 126.48-11.14 126.56-11.22C126.73-11.22 127.07-11.22 127.50-11.39L125.63-10.37C125.63-10.37 125.55-10.46 125.29-10.54L125.29-10.63ZM131.84-11.39L132.26-11.31L131.16-10.46L130.99-10.79C131.84-10.79 131.84-10.88 131.84-11.39ZM110.16-10.71L110.16-11.31C110.58-11.31 110.84-11.22 111.01-11.14C110.92-11.05 110.67-10.88 110.16-10.71ZM130.90-9.69L130.81-9.18L130.39-9.27L130.47-9.69ZM112.03-9.01L111.18-9.01L111.18-9.52L112.03-9.52ZM128.60-8.59C128.60-8.59 128.52-8.76 128.44-8.76C128.44-8.76 128.35-8.76 128.26-8.84L128.78-9.35L129.37-8.76ZM129.79-8.84C129.97-8.67 130.05-8.67 130.13-8.67L130.22-8.59C130.13-8.50 130.05-8.50 129.88-8.50C129.71-8.50 129.63-8.59 129.79-8.84ZM131.16-7.99C130.90-8.08 130.73-8.08 130.47-7.99L130.13-7.48L130.05-7.48L130.05-7.57L130.39-8.08L130.47-8.08C130.56-8.08 130.73-8.08 130.73-8.16C130.90-8.16 131.07-8.08 131.24-8.08ZM132.26-7.99C132.00-7.91 131.92-7.74 131.84-7.57L131.75-7.65L131.84-7.65C131.92-7.82 132.09-7.99 132.26-8.08L132.34-7.99ZM126.65-6.55C126.82-6.63 126.73-6.55 126.31-6.29C126.22-6.12 125.97-6.04 125.63-6.04C125.80-6.21 125.80-6.46 125.63-6.63C125.80-6.63 125.97-6.72 125.97-6.72L126.14-6.72L126.99-6.89C126.82-6.63 126.65-6.55 126.65-6.55Z" fill="#ffffff" fontsize="85" transform="matrix(1,0,0,1,200.02499999999998,289.5095604830658)"></path></svg>